<?xml version="1.0" encoding="utf-8"?>

<!DOCTYPE svg PUBLIC "-//W3C//DTD SVG 1.1//EN" "http://www.w3.org/Graphics/SVG/1.1/DTD/svg11.dtd">
<svg version="1.1" id="Layer_1" xmlns="http://www.w3.org/2000/svg" xmlns:xlink="http://www.w3.org/1999/xlink" x="0px" y="0px"
	 viewBox="0 0 1920 1300" enable-background="new 0 0 1920 1300" xml:space="preserve">
<g>
	<path fill="#302013" stroke="#302013" stroke-width="0.3" d="M950.05,35.75c22.17-4.41,45.36-2.44,66.86,4.3
		c4,1.16,7.8,3.34,12.06,3.4c17.3,0.25,35.1,4.94,48.8301,15.82c11.26,9.67,19.76,22.11,27,34.96
		c4.88,9.57,8.6699,19.67,12.2699,29.78c16.3201,46.87,23.54,96.51,24.63,146c1.03,29.68,0.49,59.37-0.47,89.04
		c-1.75,46.01-4.9,91.96-9.53,137.77c-18.21-3.07-35.33-10.79-50.86-20.61c-5.33-3.28-9.46-8.41-11.49-14.33
		c-4.12-11.56-2.77-24.14-0.62-35.96c1.88-4.88,5.25-8.99,7.48-13.71c1.38-3.17,3.9501-5.51,6.3401-7.91
		c18.96-20.27,26.7699-48.29,29.26-75.33c18.2999-25.98,28.6399-58.04,26.5599-89.94c-0.36-3.38-0.73-7.44-3.84-9.51
		c-2.8-1.97-6.47-0.64-9.03,1.08c-5.66,3.81-9.8,9.36-13.87,14.73c-4.3-15.94-10.77-31.34-19.58-45.32
		c-12.5701-19.31-29.15-35.61-46.3101-50.82c-5.62-4.71-11.08-9.65-17.0699-13.87c-2.26-1.49-4.4801,0.85-6.35,1.91
		c-13.67,9.62-29.63,14.97-45.06,21c-16.58,6.38-33.11,13-48.91,21.17c-12.5099,6.62-24.9,13.96-34.95,24.07
		c-9.12,8.82-16.6801,19.25-22.29,30.64c-1.66,3.45-3.51,6.94-3.97,10.81c-0.91,6.62-1.63,13.27-1.99,19.94
		c-4.48-0.46-9.29-1.33-13.56,0.56c-3.01,1.24-5.07,4.34-4.98,7.6c0.01,7.02,0.58,14.04,1,21.05c0.87,9.51,2.24,19.52,7.91,27.51
		c3.37,4.96,8.07,9.02,13.64,11.34c3.17,15.8,7.94,31.34,14.98,45.86c6.03,12.82,14.51,24.28,23.15,35.44
		c0.33,0.42,0.9901,1.27,1.31,1.69c2.86,16.08-0.36,33.11-8.73,47.11c-7.28,12.28-18.06,22.16-30.05,29.74
		c-15.42,10.09-33.62,14.47-51.37,18.47c-10.94,2.17-21.89,4.56-32.99,5.73c-4.48-0.79-9.08-0.91-13.55-0.14
		c-1.12,0.5-1.54,1.74-2.24,2.66c-21.82,3.47-43.82,6.12-65.28,11.53c2.56-8.64,4.8-17.37,7.27-26.03c0.72-2.42,1.23-4.9,1.48-7.41
		c-1.37,0.41-2.37,1.36-2.85,2.69c-5.09,11.06-10.64,21.91-15.68,33c-2.41-4.35-5.09-8.83-9.59-11.31c-6.35-3.57-12-8.2-18.2-12.01
		c9.91-18.95,17.89-38.87,24.92-59.05c5.64-17.3,11.66-34.69,13.39-52.91c2.49-21.56,2.02-43.53,7.06-64.75
		c2-9.03,6.5-17.18,10.81-25.27c12.69-23.31,28.32-45.08,46.87-64.09c13.15-13.41,27.57-25.74,43.75-35.36
		c5.13-26.38,13.59-52.17,25.75-76.17c6.61-13.41,15.15-25.8,24.74-37.24c11.24-13.36,23.48-25.98,37.19-36.82
		C915.49,47.08,932.31,39.26,950.05,35.75z"/>
	<path fill="#F1D1BC" stroke="#F1D1BC" stroke-width="0.3" d="M1022.32,137.23c1.8699-1.06,4.09-3.4,6.35-1.91
		c5.99,4.22,11.45,9.16,17.0699,13.87c17.16,15.21,33.74,31.51,46.3101,50.82c8.8099,13.98,15.2799,29.38,19.58,45.32
		c4.0699-5.37,8.21-10.92,13.87-14.73c2.5601-1.72,6.23-3.05,9.03-1.08c3.11,2.07,3.48,6.13,3.84,9.51
		c2.08,31.9-8.26,63.96-26.5599,89.94c-2.4901,27.04-10.3,55.06-29.26,75.33c-5.1901,0.29-9.54,3.95-11.8401,8.44
		c-7.48,13.52-17.1899,25.88-29.11,35.77c-9.65,7.49-20.05,14.16-31.46,18.61c-11.27,4.22-24.02,5.37-35.51,1.35
		c-10.78-3.88-20.25-10.71-28.41-18.64c-3.74-3.59-7.93-6.71-11.27-10.7c-4.09-4.94-8.92-9.21-12.9-14.24
		c-3.86-4.74-8.43-9.63-14.76-10.67c-8.64-11.16-17.12-22.62-23.15-35.44c-7.04-14.52-11.81-30.06-14.98-45.86
		c-5.5699-2.32-10.27-6.38-13.64-11.34c-5.67-7.99-7.04-18-7.91-27.51c-0.42-7.01-0.99-14.03-1-21.05c-0.09-3.26,1.97-6.36,4.98-7.6
		c4.27-1.89,9.08-1.02,13.56-0.56c0.36-6.67,1.08-13.32,1.99-19.94c0.46-3.87,2.31-7.36,3.97-10.81
		c5.61-11.39,13.17-21.82,22.29-30.64c10.05-10.11,22.44-17.45,34.95-24.07c15.8-8.17,32.33-14.79,48.91-21.17
		C992.69,152.2,1008.65,146.85,1022.32,137.23 M1068.0601,227.62c-4.6101,1.76-9.28,3.34-14.04,4.65
		c-8.27,2.21-16.0601,5.81-24.02,8.89c-1.6,0.54-2.71,1.84-3.78,3.06l-0.74-1.95c0.05,0.78,0.14,2.34,0.1901,3.12
		c-0.67-0.55-2.0101-1.64-2.67-2.19c0.77,1.93,0.01,3.48-2.14,3.44l0.01,1.92c-0.46-0.57-1.36-1.69-1.81-2.25
		c0.1,1.17,0.31,3.52,0.41,4.7c-0.52-0.79-1.5699-2.38-2.09-3.17c-0.2,1.4,0.22,2.76,0.57,4.11c-0.84,2.18-1.2,4.64,0.26,6.67
		c4.23-4.85,10.4899-7.03,15.7599-10.49c7.3201-3.84,14.3401-8.42,22.3-10.84c7.2-2.6,14.63-6.21,22.5-4.99
		c-0.2001,0.58-0.61,1.76-0.8101,2.34c0.78-0.08,2.36-0.25,3.14-0.33c0.15,0.28,0.4601,0.83,0.61,1.11
		c2.86,1.34,5.36,3.32,8.1901,4.75c-0.34,0.31-1.01,0.95-1.35,1.27c2.3099,1.26,4.3899,2.88,6.51,4.46
		c-2.7401-7.31-8.91-13.27-15.9901-16.4C1075.36,229.1,1071.79,226.05,1068.0601,227.62 M900.95,231.49
		c-7.12,3.13-13.23,9.11-16.04,16.4c2.1201-1.53,4.19-3.13,6.46-4.46c-0.34-0.31-1.02-0.94-1.36-1.25c2.93-1.29,5.28-3.56,8.3-4.68
		c0.79-1.4,2.19-1.7,4.21-0.91c-0.36-0.56-1.06-1.68-1.42-2.24c6.53-1.26,12.78,1.41,18.84,3.45c4.49,1.98,9.38,3.05,13.63,5.58
		c5.1,2.86,10.4,5.38,15.39,8.47c4.25,2.74,9.36,4.47,12.5099,8.65c0.36-0.46,1.09-1.38,1.45-1.84c-0.13-1.6-0.4-3.18-0.87-4.71
		c0.3-1.37,0.88-2.75,0.54-4.16c-0.17,0.73-0.5,2.19-0.67,2.93h-1.46c0.13-0.99,0.39-2.99,0.52-3.99c-0.47,0.35-1.4,1.04-1.87,1.38
		l0.02-1.5c-2.18,0.1-2.87-1.4-2.13-3.37c-0.71,0.54-2.12,1.61-2.83,2.15l0.73-2.54c-0.36,0.3-1.1,0.9-1.47,1.19
		c-0.83-1.01-1.57-2.18-2.85-2.62c-4.27-1.78-8.59-3.45-12.88-5.16c-8.34-3.52-17.32-5.15-25.69-8.62
		C908.26,228.01,904.67,231.1,900.95,231.49 M1034.33,260.2c-5.2,4.96-8.39,11.81-9.4299,18.87c-0.2001,1.9-0.9901,4.07,0.33,5.77
		c-0.59,0.79-1.1899,1.55-1.8,2.3c2.98-1.18,5.96-3.23,9.32-2.72c0.87,0.83,1.87,1.46,3,1.9c8.51,2.64,16.92,7.38,26.13,5.95
		c2.76-1.11,6.76-1.81,7.9301-4.87c0.2999-0.11,0.8999-0.33,1.2-0.44c-0.92-0.7-1.83-1.39-2.7-2.1
		c3.5699,0.39,7.21,0.28,10.7799,0.85c-2.21-1.05-4.63-1.49-6.97-2.08c2.99-0.67,5.79-2.1,8.92-2.11
		c-1.2201-0.3-2.4401-0.56-3.65-0.79c1.33-0.58,2.58-1.3,3.76-2.17c-0.8301,0.04-2.48,0.13-3.3,0.17c1.4-0.5,2.8201-0.98,4.26-1.45
		c3.33,0.72,6.37-1.23,9.02-2.98c-3.53,0.62-7.5,1.23-10.28-1.63c2.62-1.17,5.15-2.59,7.24-4.58c-0.3099,0.11-0.95,0.34-1.27,0.45
		c-1.88-0.82-3.8899-2.52-6.0599-1.72c1.6-1.34,2.99-2.92,4.09-4.7c-2.59,1.99-5.4399,4-8.87,3.93c-1.59-0.14-3.84,0.53-4.78-1.16
		c2.25-0.9,4.4701-2.32,5.04-4.86c-0.9399,0.7-1.8,1.45-2.74,2.12c-0.72-1.98-2.74-2.91-4.2-4.24l-0.54,0.34
		C1058.78,250.26,1043.66,252.13,1034.33,260.2 M911.23,260.25l-0.53-0.32c-1.49,1.34-3.48,2.29-4.28,4.22
		c-0.83-0.66-1.61-1.36-2.35-2.08c-0.04,2.66,2.68,3.87,4.74,4.84c-4.24,2.92-10.21,0.27-13.77-2.89c1.16,1.79,2.55,3.43,4.19,4.81
		c-2.2-0.78-4.23,0.8-6.09,1.69c-0.3-0.11-0.92-0.34-1.22-0.45c2.02,1.95,4.44,3.45,7.1,4.4c-2.48,3.18-6.78,2.62-10.16,1.56
		c2.46,2.06,5.59,3.94,8.95,3.25c1.44,0.47,2.9,0.94,4.35,1.45c-0.89-0.05-2.67-0.14-3.56-0.19c1.17,0.73,2.35,1.46,3.56,2.17
		c-1.1,0.31-2.19,0.63-3.2599,0.96c0.8199,0.02,2.45,0.06,3.2599,0.07c1.8,0.95,3.75,1.42,5.73,1.92c-2.39,0.53-4.81,1.03-7.02,2.08
		c1.93-0.22,3.87-0.68,5.85-0.41c0.59,0.19,1.78,0.56,2.3701,0.74c0.35,0.48,1.05,1.43,1.4,1.9l-0.37,0.59
		c3.12,1.68,6.25,3.81,9.92,3.94c5.86,0.15,11.65-1.37,16.9901-3.7c3.41-1.53,7.39-1.91,10.34-4.39c3.3-0.45,6.23,1.59,9.2,2.68
		c-0.64-0.73-1.25-1.48-1.81-2.25c0.18-0.46,0.55-1.36,0.73-1.81c-0.3-5.58-1.69-11.2-4.53-16.05
		C943.72,255.33,923.48,250.47,911.23,260.25 M1005.52,270.16c-3.08,11.01-2.28,22.53-2.12,33.82c0.63,8.4,3.02,16.8,7.4,24.04
		c2.97,5.42,5.92,11.54,4.74,17.9c-0.16,2.7-1.98,4.77-3.38,6.93c2.71-1.04,4.4-3.7,5.03-6.44c1.61-5.62-0.35-11.51-3.19-16.39
		c-2.5-4.32-3.52-9.24-5.12-13.91c-0.22-6.18-2.33-12.1-2.66-18.27c-2.06-13.74,1.57-27.37,4.13-40.78
		C1008.46,261.31,1006.52,265.61,1005.52,270.16 M966.51,353.12c-1.42-7.31-1.64-14.82,0.01-22.12
		C962.83,337.6,960.31,347.17,966.51,353.12 M971.78,347.52c-0.36,0.65-1.09,1.95-1.45,2.6c2.75,3.15,7.02,1.98,10.67,2.32
		c1.75,2.39,4.22,4.27,6.98,5.34c4.9,1.25,8.57-2.75,11.93-5.6c3.6201,0.24,7.7401,1.27,10.97-0.97c-0.27-1.43-1.05-3.25-2.83-2.89
		c-5.26-0.2-9.7,3.13-13.4,6.49c-2.57,2.42-6.84,2.34-9.35-0.1C981.35,351.5,977.54,346.46,971.78,347.52 M930.27,372.4
		c-0.2,2.73-0.78,5.87,0.97,8.24c1.84,2.71,3.36,5.76,5.79,8c3.31,4.47,6.6899,8.9,9.6899,13.6c4.89,6.57,9.42,14.37,17.44,17.47
		l0.07,0.37c7.19,2.93,14.96,4.15,22.72,3.82c8.86,0.2,18.12-3.11,23.89-10.03c6.36-7.74,12.64-15.55,19.08-23.22
		c2.5699-1.58,4.62-3.9,7.3199-5.32c3.35-1.79,6.62-4.93,6.77-8.96c-2.58,2.78-5.88,4.83-9.8201,3.97
		c-1.6399-0.73-3.4199-0.99-5.1799-1.04c-9.66-0.4-19.32,0.11-28.98,0.13c-4.67-0.08-8.95,2.01-13.04,3.99
		c-2.69-1.96-5.8-3.29-9.07-3.83c-8.89-1.4-17.91-0.94-26.87-0.93c-2.43,0.08-4.95-0.26-7.24,0.7c-2.97,0.19-6.02,0.12-8.87-0.78
		c-2.55-1.15-3-4.17-4.11-6.43L930.27,372.4z"/>
	<path stroke="#000000" stroke-width="0.3" d="M1068.0601,227.62c3.73-1.57,7.2999,1.48,11.0099,1.88
		c7.0801,3.13,13.25,9.09,15.9901,16.4c-2.1201-1.58-4.2001-3.2-6.51-4.46c0.34-0.32,1.01-0.96,1.35-1.27
		c-2.8301-1.43-5.3301-3.41-8.1901-4.75c-0.1499-0.28-0.46-0.83-0.61-1.11c-0.78,0.08-2.36,0.25-3.14,0.33
		c0.2001-0.58,0.61-1.76,0.8101-2.34c-7.87-1.22-15.3,2.39-22.5,4.99c-7.96,2.42-14.98,7-22.3,10.84
		c-5.27,3.46-11.53,5.64-15.7599,10.49c-1.46-2.03-1.1-4.49-0.26-6.67c-0.35-1.35-0.77-2.71-0.57-4.11
		c0.52,0.79,1.57,2.38,2.09,3.17c-0.1-1.18-0.31-3.53-0.41-4.7c0.45,0.56,1.35,1.68,1.81,2.25l-0.01-1.92
		c2.15,0.04,2.91-1.51,2.14-3.44c0.66,0.55,2,1.64,2.67,2.19c-0.05-0.78-0.14-2.34-0.1901-3.12l0.74,1.95
		c1.0701-1.22,2.1801-2.52,3.78-3.06c7.96-3.08,15.75-6.68,24.02-8.89C1058.78,230.96,1063.45,229.38,1068.0601,227.62z"/>
	<path stroke="#000000" stroke-width="0.3" d="M900.95,231.49c3.72-0.39,7.31-3.48,11.06-1.85c8.37,3.47,17.35,5.1,25.69,8.62
		c4.29,1.71,8.61,3.38,12.88,5.16c1.28,0.44,2.02,1.61,2.85,2.62c0.37-0.29,1.11-0.89,1.47-1.19l-0.73,2.54
		c0.71-0.54,2.12-1.61,2.83-2.15c-0.74,1.97-0.05,3.47,2.13,3.37l-0.02,1.5c0.47-0.34,1.4-1.03,1.87-1.38c-0.13,1-0.39,3-0.52,3.99
		h1.46c0.17-0.74,0.5-2.2,0.67-2.93c0.34,1.41-0.2401,2.79-0.54,4.16c0.47,1.53,0.74,3.11,0.87,4.71c-0.36,0.46-1.09,1.38-1.45,1.84
		c-3.15-4.18-8.2599-5.91-12.5099-8.65c-4.9901-3.09-10.29-5.61-15.39-8.47c-4.25-2.53-9.14-3.6-13.63-5.58
		c-6.06-2.04-12.31-4.71-18.84-3.45c0.36,0.56,1.06,1.68,1.42,2.24c-2.02-0.79-3.42-0.49-4.21,0.91c-3.02,1.12-5.37,3.39-8.3,4.68
		c0.34,0.31,1.02,0.94,1.36,1.25c-2.27,1.33-4.34,2.93-6.46,4.46C887.72,240.6,893.83,234.62,900.95,231.49z"/>
	<path fill="#FDE8D8" stroke="#FDE8D8" stroke-width="0.3" d="M1034.33,260.2c9.3301-8.07,24.4501-9.94,34.4301-1.95
		c-1.5601,0.84-3.12,1.65-4.67,2.48c-6.83-3.18-14.95-1.81-21.1699,2.1c-5.63,3.6-10.75,8.26-14.05,14.13
		c-1.4301,2.53-2.28,5.32-3.64,7.88c-1.32-1.7-0.53-3.87-0.33-5.77C1025.9399,272.01,1029.13,265.16,1034.33,260.2z"/>
	<path fill="#FDE8D8" stroke="#FDE8D8" stroke-width="0.3" d="M911.23,260.25c12.25-9.78,32.49-4.92,39.73,8.73
		c2.84,4.85,4.23,10.47,4.53,16.05c-0.18,0.45-0.55,1.35-0.73,1.81c-1.99-4.14-3.46-8.61-6.5-12.15
		c-4.9-5.88-11.18-11.05-18.69-13.07c-4.53-1.18-9.42-0.79-13.69,1.12C914.33,261.89,912.79,261.04,911.23,260.25z"/>
	<path fill="#534B44" stroke="#534B44" stroke-width="0.3" d="M1005.52,270.16c1-4.55,2.94-8.85,4.83-13.1
		c-2.56,13.41-6.19,27.04-4.13,40.78c0.33,6.17,2.44,12.09,2.66,18.27c-2.04-5.06-2.47-10.54-3.23-15.88
		c-0.98-7.6,0.28-15.28-0.62-22.88C1005.76,275.02,1005.63,272.57,1005.52,270.16z"/>
	<path fill="#13110C" stroke="#13110C" stroke-width="0.3" d="M1068.76,258.25l0.54-0.34c-1.03,1.42-2.13,2.77-3.27,4.08
		c2.2999,1.61,5.0399,1.42,7.47,0.16c0.9399-0.67,1.8-1.42,2.74-2.12c-0.5699,2.54-2.79,3.96-5.04,4.86
		c0.9401,1.69,3.1901,1.02,4.78,1.16c3.4301,0.07,6.28-1.94,8.87-3.93c-1.1,1.78-2.49,3.36-4.09,4.7c-1.63,0.63-3.28,1.21-4.91,1.78
		c2.8101,3.91,7.4601,1.22,10.97-0.06c0.3201-0.11,0.9601-0.34,1.27-0.45c-2.09,1.99-4.62,3.41-7.24,4.58
		c2.78,2.86,6.75,2.25,10.28,1.63c-2.65,1.75-5.6901,3.7-9.02,2.98c-6.52-0.54-9.84-6.78-15.0599-9.74
		c-1.2101-0.71-2.4401-1.39-3.67-2.02c-3.63-2.13-7.91-1.86-11.9401-1.71c-3.95,0.26-7.9099,1.57-10.71,4.47
		c-0.24,0.15-0.74,0.46-0.99,0.61c-2.97,1.06-5.11,3.42-6.97,5.85c-2.28,2.96-4.24,6.14-6.38,9.2c2.45-0.85,5.08-1.14,7.6799-0.95
		c5.5601,1.6,11.0601,3.97,16.9601,3.9c5.14,0.22,10.25-0.79,15.08-2.5c4.0701-1.55,7.54-4.37,11.74-5.66
		c0.8201-0.04,2.47-0.13,3.3-0.17c-1.1801,0.87-2.4301,1.59-3.76,2.17c1.21,0.23,2.4299,0.49,3.65,0.79
		c-3.13,0.01-5.9301,1.44-8.92,2.11c2.34,0.59,4.76,1.03,6.97,2.08c-3.5699-0.57-7.21-0.46-10.7799-0.85
		c0.87,0.71,1.7799,1.4,2.7,2.1c-0.3,0.11-0.9,0.33-1.2,0.44c-5.3101-0.24-10.54,0.7-15.8301,0.92c-7.34,0.31-13.98-3.52-21.23-3.9
		c-3.36-0.51-6.34,1.54-9.32,2.72c0.61-0.75,1.21-1.51,1.8-2.3c1.36-2.56,2.21-5.35,3.64-7.88c3.3-5.87,8.42-10.53,14.05-14.13
		c6.22-3.91,14.34-5.28,21.1699-2.1C1065.64,259.9,1067.2,259.09,1068.76,258.25z"/>
	<path fill="#FDE8D8" stroke="#FDE8D8" stroke-width="0.3" d="M1069.3,257.91c1.46,1.33,3.48,2.26,4.2,4.24
		c-2.4301,1.26-5.17,1.45-7.47-0.16C1067.17,260.68,1068.27,259.33,1069.3,257.91z"/>
	<path fill="#FDE8D8" stroke="#FDE8D8" stroke-width="0.3" d="M906.42,264.15c0.8-1.93,2.79-2.88,4.28-4.22
		c0.99,1.37,2.08,2.66,3.21,3.93C911.66,265.72,908.88,265.36,906.42,264.15z"/>
	<path fill="#13110C" stroke="#13110C" stroke-width="0.3" d="M910.7,259.93l0.53,0.32c1.56,0.79,3.1,1.64,4.65,2.49
		c4.27-1.91,9.16-2.3,13.69-1.12c7.51,2.02,13.79,7.19,18.69,13.07c3.04,3.54,4.51,8.01,6.5,12.15c0.56,0.77,1.17,1.52,1.81,2.25
		c-2.97-1.09-5.9-3.13-9.2-2.68c-6.83,0.28-13.05,3.79-19.9,3.89c-4.98,0.33-9.8199-1.17-14.77-1.04c-0.77-0.72-1.53-1.44-2.27-2.15
		c-1.25,0.11-2.49,0.18-3.71,0.22c-1.98-0.27-3.92,0.19-5.85,0.41c2.21-1.05,4.63-1.55,7.02-2.08c-1.98-0.5-3.93-0.97-5.73-1.92
		c-0.81-0.01-2.44-0.05-3.2599-0.07c1.0699-0.33,2.16-0.65,3.2599-0.96c-1.21-0.71-2.39-1.44-3.56-2.17
		c0.89,0.05,2.67,0.14,3.56,0.19c4.88,1.52,8.84,5.09,13.83,6.35c5.32,1.72,10.98,2.18,16.52,1.58c4.61-0.61,8.93-2.41,13.38-3.67
		c2.61-0.2,5.22,0.1,7.73,0.95c-2.14-3.03-4.09-6.19-6.33-9.13c-1.65-2.16-3.57-4.12-5.82-5.64c-0.66-0.32-1.33-0.61-1.95-0.93
		c-3.1-2.67-6.98-4.27-11.07-4.41c-3.98-0.23-8.2-0.39-11.78,1.66c-1.21,0.6-2.39,1.24-3.55,1.92c-5.32,2.98-8.68,9.36-15.31,9.87
		c-3.36,0.69-6.49-1.19-8.95-3.25c3.38,1.06,7.68,1.62,10.16-1.56c-2.66-0.95-5.08-2.45-7.1-4.4c0.3,0.11,0.92,0.34,1.22,0.45
		c2.71,1.14,5.52,2.04,8.45,2.42c0.79-0.82,1.62-1.63,2.44-2.44c-1.6201-0.52-3.22-1.07-4.8-1.67c-1.64-1.38-3.03-3.02-4.19-4.81
		c3.56,3.16,9.53,5.81,13.77,2.89c-2.06-0.97-4.78-2.18-4.74-4.84c0.74,0.72,1.52,1.42,2.35,2.08c2.46,1.21,5.24,1.57,7.49-0.29
		C912.78,262.59,911.69,261.3,910.7,259.93z"/>
	<path fill="#A2C185" stroke="#A2C185" stroke-width="0.3" d="M1051.4399,263.81c4.03-0.15,8.3101-0.42,11.9401,1.71
		c-0.73,1.84-1.48,3.69-2.03,5.59c-0.99-0.69-1.97-1.37-2.95-2.04c-1.27-3.03-3.85-5.61-7.4-4.82L1051.4399,263.81z"/>
	<path fill="#038B36" stroke="#038B36" stroke-width="0.3" d="M1040.73,268.28c2.8-2.9,6.76-4.21,10.71-4.47L1051,264.25
		c-1.96,1.96-4.21,4.03-4.61,6.92c-0.39,2.62,1.36,4.84,2.64,6.95c-1.2001,0.84-2.39,1.7-3.5601,2.56
		c-0.98-0.86-1.99-1.74-2.95-2.58c0.33-0.26,0.98-0.79,1.3099-1.05c-0.95-1.23-1.6-2.6-1.3099-4.19c-0.7001-0.17-2.1-0.52-2.8-0.69
		c0.92-0.49,2.75-1.46,3.67-1.95c-0.86,0.11-2.58,0.32-3.4401,0.42c0.39-0.71,1.17-2.14,1.5601-2.86L1040.73,268.28z"/>
	<path fill="#A2C185" stroke="#A2C185" stroke-width="0.3" d="M916.67,267.49c3.58-2.05,7.8-1.89,11.78-1.66l0.57,0.47
		c-3.65-0.93-6.09,1.85-7.49,4.8c-0.98,0.7-1.95,1.4-2.91,2.1C918.08,271.26,917.36,269.37,916.67,267.49z"/>
	<path fill="#13110C" stroke="#13110C" stroke-width="0.3" d="M1046.39,271.17c0.4-2.89,2.65-4.96,4.61-6.92
		c3.55-0.79,6.13,1.79,7.4,4.82c-2.04,1.87-3.1801,4.62-1.91,7.26l0.48,0.34c-1.01,0.63-2.02,1.25-3.01,1.87
		c-1.6699,0.08-3.3199-0.08-4.9299-0.42C1047.75,276.01,1046,273.79,1046.39,271.17z"/>
	<path fill="#038B36" stroke="#038B36" stroke-width="0.3" d="M928.45,265.83c4.09,0.14,7.97,1.74,11.07,4.41l-0.46-0.21
		c-0.3,1.07-0.92,1.97-1.85,2.59c0.42,0.32,1.27,0.97,1.69,1.29c-0.6801,0.36-2.04,1.08-2.72,1.43c0,1.75-0.07,3.57,0.69,5.2
		c-0.81,0.71-1.59,1.43-2.38,2.15c-1.17-0.87-2.33-1.74-3.49-2.59c1.26-2.11,2.99-4.35,2.6-6.97c-0.46-2.83-2.5699-4.98-4.58-6.83
		L928.45,265.83z"/>
	<path fill="#BECFA9" stroke="#BECFA9" stroke-width="0.3" d="M1063.38,265.52c1.23,0.63,2.46,1.31,3.67,2.02l-1.25,0.06
		l-0.0601,1.21c-0.38-0.23-1.14-0.7-1.51-0.93c0.3,2.15,0.5601,4.32,0.59,6.5c-1.1799,1.01-2.25,2.11-3.5099,2.99
		c-1.4801,0.11-2.9401-0.4-4.3401-0.7l-0.48-0.34c1.55-0.45,4.61,0.6,4.85-1.8c0.13-1.13,0.01-2.28,0.01-3.42
		C1061.9,269.21,1062.65,267.36,1063.38,265.52z"/>
	<path fill="#13110C" stroke="#13110C" stroke-width="0.3" d="M921.53,271.1c1.4-2.95,3.84-5.73,7.49-4.8
		c2.01,1.85,4.12,4,4.58,6.83c0.39,2.62-1.34,4.86-2.6,6.97c-1.65,0.36-3.33,0.53-5,0.41c-1-0.6-1.98-1.2-2.94-1.81l0.46-0.4
		C924.72,275.68,923.72,272.85,921.53,271.1z"/>
	<path fill="#FDE8D8" stroke="#FDE8D8" stroke-width="0.3" d="M1075.85,268.6c1.63-0.57,3.28-1.15,4.91-1.78
		c2.17-0.8,4.1799,0.9,6.0599,1.72C1083.3101,269.82,1078.66,272.51,1075.85,268.6z"/>
	<path fill="#BECFA9" stroke="#BECFA9" stroke-width="0.3" d="M913.12,269.41c1.16-0.68,2.34-1.32,3.55-1.92
		c0.69,1.88,1.41,3.77,1.95,5.71c0.07,1.53-0.46,3.33,0.64,4.62c1.38,0.36,2.8,0.52,4.26,0.48l-0.46,0.4
		c-1.44,0.3-2.87,0.83-4.34,0.7c-1.28-0.89-2.4-2-3.54-3.02c0.02-2.19,0.29-4.37,0.61-6.53c-0.36,0.24-1.09,0.72-1.45,0.96
		C914.04,270.46,913.43,269.76,913.12,269.41z"/>
	<path fill="#FFFFFF" stroke="#FFFFFF" stroke-width="0.3" d="M1039.74,268.89c0.25-0.15,0.75-0.46,0.99-0.61l0.78-0.5
		c-0.39,0.72-1.17,2.15-1.5601,2.86c0.8601-0.1,2.5801-0.31,3.4401-0.42c-0.92,0.49-2.75,1.46-3.67,1.95
		c0.7001,0.17,2.1,0.52,2.8,0.69c-0.29,1.59,0.36,2.96,1.3099,4.19c-0.33,0.26-0.98,0.79-1.3099,1.05
		c-0.9301,2.27,0.97,4.42,2.5599,5.83c3.01,1.91,6.89,2.94,10.37,1.71c3.4501-1.25,7.2201-2.81,9.0901-6.21
		c2.0599-3.16,1.5599-7.08,1.2-10.62l0.0601-1.21l1.25-0.06c5.22,2.96,8.5399,9.2,15.0599,9.74c-1.4399,0.47-2.86,0.95-4.26,1.45
		c-4.2,1.29-7.6699,4.11-11.74,5.66c-4.83,1.71-9.9399,2.72-15.08,2.5c-5.9,0.07-11.4-2.3-16.9601-3.9
		c-0.4099-2.76-0.85-5.51-1.2999-8.25C1034.63,272.31,1036.77,269.95,1039.74,268.89z"/>
	<path fill="#038B36" stroke="#038B36" stroke-width="0.3" d="M1064.23,267.88c0.37,0.23,1.13,0.7,1.51,0.93
		c0.36,3.54,0.86,7.46-1.2,10.62c-1.87,3.4-5.64,4.96-9.0901,6.21c0.0601-1.23,0.9-1.98,1.9701-2.46
		c0.2699-0.15,0.7999-0.47,1.0699-0.63c0.09-0.62,0.25-1.87,0.34-2.49c0.4301,0.17,1.3101,0.51,1.74,0.68
		c1.4601-1.67,2.92-3.35,4.2201-5.15c0.01-0.3,0.02-0.91,0.0299-1.21C1064.79,272.2,1064.53,270.03,1064.23,267.88z"/>
	<path fill="#FDE8D8" stroke="#FDE8D8" stroke-width="0.3" d="M893.14,270.52c1.86-0.89,3.89-2.47,6.09-1.69
		c1.58,0.6,3.18,1.15,4.8,1.67c-0.82,0.81-1.65,1.62-2.44,2.44C898.66,272.56,895.85,271.66,893.14,270.52z"/>
	<path fill="#FFFFFF" stroke="#FFFFFF" stroke-width="0.3" d="M897.81,279.28c6.63-0.51,9.99-6.89,15.31-9.87
		c0.31,0.35,0.92,1.05,1.22,1.4c-0.52,3.55-0.9301,7.46,1.1299,10.63c1.86,3.39,5.61,4.94,9.0601,6.2c2.4,0.85,4.97,0.43,7.41-0.1
		c3.67-1.02,6.36-4.16,7.7-7.62c0.88-2.85,1.17-5.84,1.83-8.75c2.25,1.52,4.17,3.48,5.82,5.64c-0.5,2.72-0.97,5.45-1.4,8.18
		c-4.45,1.26-8.77,3.06-13.38,3.67c-5.54,0.6-11.2,0.14-16.52-1.58c-4.99-1.26-8.95-4.83-13.83-6.35
		C900.71,280.22,899.25,279.75,897.81,279.28z"/>
	<path fill="#038B36" stroke="#038B36" stroke-width="0.3" d="M914.34,270.81c0.36-0.24,1.09-0.72,1.45-0.96
		c-0.32,2.16-0.59,4.34-0.61,6.53c0.01,0.3,0.03,0.9,0.03,1.2c1.29,1.8,2.74,3.48,4.22,5.15c0.44-0.17,1.31-0.51,1.75-0.67
		c0.08,0.62,0.25,1.86,0.33,2.48c0.27,0.16,0.8,0.48,1.07,0.64c1.03,0.49,1.92,1.2,1.95,2.46c-3.45-1.26-7.2-2.81-9.0601-6.2
		C913.41,278.27,913.82,274.36,914.34,270.81z"/>
	<path fill="#AAC59D" stroke="#AAC59D" stroke-width="0.3" d="M939.06,270.03l0.46,0.21c0.62,0.32,1.29,0.61,1.95,0.93
		c-0.66,2.91-0.95,5.9-1.83,8.75c-1.34,3.46-4.03,6.6-7.7,7.62c0.24-0.61,0.73-1.85,0.97-2.46c1.57-0.94,3.11-1.93,4.5-3.13
		c-0.1299-0.35-0.4-1.06-0.54-1.41c-0.76-1.63-0.69-3.45-0.69-5.2c0.68-0.35,2.04-1.07,2.72-1.43c-0.42-0.32-1.27-0.97-1.69-1.29
		C938.14,272,938.76,271.1,939.06,270.03z"/>
	<path fill="#040404" stroke="#040404" stroke-width="0.3" d="M1003.4,303.98c-0.16-11.29-0.96-22.81,2.12-33.82
		c0.11,2.41,0.24,4.86-0.49,7.19c0.9,7.6-0.36,15.28,0.62,22.88c0.7599,5.34,1.19,10.82,3.23,15.88c1.6,4.67,2.62,9.59,5.12,13.91
		c2.84,4.88,4.8,10.77,3.19,16.39c-0.63,2.74-2.32,5.4-5.03,6.44c1.4-2.16,3.22-4.23,3.38-6.93c1.18-6.36-1.77-12.48-4.74-17.9
		C1006.42,320.78,1004.03,312.38,1003.4,303.98z"/>
	<path fill="#FFFFFF" stroke="#FFFFFF" stroke-width="0.3" d="M1056.49,276.33c-1.27-2.64-0.13-5.39,1.91-7.26
		c0.98,0.67,1.96,1.35,2.95,2.04c0,1.14,0.12,2.29-0.01,3.42C1061.1,276.93,1058.04,275.88,1056.49,276.33z"/>
	<path fill="#FFFFFF" stroke="#FFFFFF" stroke-width="0.3" d="M918.62,273.2c0.96-0.7,1.93-1.4,2.91-2.1
		c2.1899,1.75,3.1899,4.58,1.99,7.2c-1.46,0.04-2.88-0.12-4.26-0.48C918.16,276.53,918.69,274.73,918.62,273.2z"/>
	<path fill="#E0E0E0" stroke="#E0E0E0" stroke-width="0.3" d="M1026.39,283.94c2.14-3.06,4.1-6.24,6.38-9.2
		c0.45,2.74,0.89,5.49,1.2999,8.25C1031.47,282.8,1028.84,283.09,1026.39,283.94z"/>
	<path fill="#A1C084" stroke="#A1C084" stroke-width="0.3" d="M1061.3101,277.37c1.2599-0.88,2.33-1.98,3.5099-2.99
		c-0.0099,0.3-0.0199,0.91-0.0299,1.21c-1.3,1.8-2.76,3.48-4.2201,5.15c-0.4299-0.17-1.3099-0.51-1.74-0.68
		c-0.09,0.62-0.25,1.87-0.34,2.49c-0.27,0.16-0.8,0.48-1.0699,0.63c-1.01-0.51-2-1.04-2.9601-1.57c-0.1799-1.03-0.35-2.05-0.5-3.07
		c0.99-0.62,2-1.24,3.01-1.87C1058.37,276.97,1059.83,277.48,1061.3101,277.37z"/>
	<path fill="#A1C084" stroke="#A1C084" stroke-width="0.3" d="M915.21,277.58c0-0.3-0.02-0.9-0.03-1.2
		c1.14,1.02,2.26,2.13,3.54,3.02c1.47,0.13,2.9-0.4,4.34-0.7c0.96,0.61,1.94,1.21,2.94,1.81c-0.15,1.02-0.29,2.04-0.42,3.07
		c-1.01,0.54-2.01,1.08-3,1.6c-0.27-0.16-0.8-0.48-1.07-0.64c-0.08-0.62-0.25-1.86-0.33-2.48c-0.44,0.16-1.31,0.5-1.75,0.67
		C917.95,281.06,916.5,279.38,915.21,277.58z"/>
	<path fill="#E0E0E0" stroke="#E0E0E0" stroke-width="0.3" d="M947.29,276.81c2.2401,2.94,4.19,6.1,6.33,9.13
		c-2.51-0.85-5.12-1.15-7.73-0.95C946.32,282.26,946.79,279.53,947.29,276.81z"/>
	<path fill="#77B265" stroke="#77B265" stroke-width="0.3" d="M1045.47,280.68c1.17-0.86,2.36-1.72,3.5601-2.56
		c1.61,0.34,3.26,0.5,4.9299,0.42c0.15,1.02,0.3201,2.04,0.5,3.07c0.9601,0.53,1.9501,1.06,2.9601,1.57
		c-1.0701,0.48-1.91,1.23-1.9701,2.46c-3.48,1.23-7.36,0.2-10.37-1.71c-1.59-1.41-3.49-3.56-2.5599-5.83
		C1043.48,278.94,1044.49,279.82,1045.47,280.68z"/>
	<path fill="#76B162" stroke="#76B162" stroke-width="0.3" d="M926,280.51c1.67,0.12,3.35-0.05,5-0.41
		c1.16,0.85,2.32,1.72,3.49,2.59c0.79-0.72,1.57-1.44,2.38-2.15c0.14,0.35,0.41,1.06,0.54,1.41c-1.39,1.2-2.93,2.19-4.5,3.13
		c-0.24,0.61-0.73,1.85-0.97,2.46c-2.44,0.53-5.01,0.95-7.41,0.1c-0.03-1.26-0.92-1.97-1.95-2.46c0.99-0.52,1.99-1.06,3-1.6
		C925.71,282.55,925.85,281.53,926,280.51z"/>
	<path fill="#FFFFFF" stroke="#FFFFFF" stroke-width="0.3" d="M1032.75,284.42c7.25,0.38,13.89,4.21,21.23,3.9
		c5.29-0.22,10.52-1.16,15.8301-0.92c-1.17,3.06-5.17,3.76-7.9301,4.87c-9.21,1.43-17.62-3.31-26.13-5.95
		C1034.62,285.88,1033.62,285.25,1032.75,284.42z"/>
	<path fill="#FFFFFF" stroke="#FFFFFF" stroke-width="0.3" d="M906.72,287.33c1.22-0.04,2.46-0.11,3.71-0.22
		c0.74,0.71,1.5,1.43,2.27,2.15c4.95-0.13,9.79,1.37,14.77,1.04c6.85-0.1,13.07-3.61,19.9-3.89c-2.95,2.48-6.93,2.86-10.34,4.39
		c-5.34,2.33-11.13,3.85-16.9901,3.7c-3.67-0.13-6.8-2.26-9.92-3.94l0.37-0.59c0.05-0.47,0.14-1.4,0.19-1.87
		c-0.4-0.01-1.19-0.02-1.59-0.03C908.5,287.89,907.31,287.52,906.72,287.33z"/>
	<path fill="#040404" stroke="#040404" stroke-width="0.3" d="M909.09,288.07c0.4,0.01,1.19,0.02,1.59,0.03
		c-0.05,0.47-0.14,1.4-0.19,1.87C910.14,289.5,909.44,288.55,909.09,288.07z"/>
	<path fill="#030302" stroke="#030302" stroke-width="0.3" d="M966.51,353.12c-6.2-5.95-3.68-15.52,0.01-22.12
		C964.87,338.3,965.09,345.81,966.51,353.12z"/>
	<path fill="#030303" stroke="#030303" stroke-width="0.3" d="M971.78,347.52c5.7599-1.06,9.5699,3.98,13.52,7.19
		c2.51,2.44,6.78,2.52,9.35,0.1c3.7-3.36,8.14-6.69,13.4-6.49c1.78-0.36,2.56,1.46,2.83,2.89c-3.23,2.24-7.35,1.21-10.97,0.97
		c-3.36,2.85-7.03,6.85-11.93,5.6c-2.76-1.07-5.23-2.95-6.98-5.34c-3.65-0.34-7.92,0.83-10.67-2.32
		C970.69,349.47,971.42,348.17,971.78,347.52z"/>
	<path fill="#3F0801" stroke="#3F0801" stroke-width="0.3" d="M930.27,372.4l0.56-0.25c1.11,2.26,1.56,5.28,4.11,6.43
		c2.85,0.9,5.9,0.97,8.87,0.78c0.43,0.34,0.87,0.7,1.33,1.07c1.89,1.7,3.58,3.78,6.02,4.75c0.01,1.29,0.03,2.59,0.05,3.89
		c3.38,2.3,5.05,6.67,9.21,7.79c2.8,4.54,8.51,3.77,12.68,6.15c3.34,1.65,7.09,0.6,10.61,0.43c2.96,0.7,6.11,1.96,9.1,0.55
		c2.77-1.3,5.99-1.11,8.71-2.5c4.79-3.38,10.94-3.65,15.89-6.81c0.55-1.51,1.13-3.01,1.7401-4.5c3.49-2.72,6.7999-5.7,9.41-9.29
		c1.85-0.26,3.73-0.49,5.6299-0.55c3.9401,0.86,7.2401-1.19,9.8201-3.97c-0.15,4.03-3.42,7.17-6.77,8.96
		c-2.7,1.42-4.75,3.74-7.3199,5.32c-9.4901,6.02-18.7501,12.77-29.65,16.09c-16.54,2.02-33.87-0.76-48.83-8.2
		c-5.36-2.48-9.48-6.79-14.41-9.9c-2.4301-2.24-3.95-5.29-5.79-8C929.49,378.27,930.07,375.13,930.27,372.4z"/>
	<path fill="#EA280A" stroke="#EA280A" stroke-width="0.3" d="M943.81,379.36c2.29-0.96,4.81-0.62,7.24-0.7
		c8.96-0.01,17.98-0.47,26.87,0.93c3.27,0.54,6.38,1.87,9.07,3.83c4.09-1.98,8.37-4.07,13.04-3.99
		c9.66-0.02,19.3199-0.53,28.98-0.13c1.76,0.05,3.54,0.31,5.1799,1.04c-1.8999,0.06-3.7799,0.29-5.6299,0.55
		c-12.3801,1.82-24.7501,3.9-36.7701,7.46c-1.49,0.16-2.96,0.28-4.44,0.35c-4.18-0.04-8.46-0.15-12.44-1.55
		c-7.5099-2.62-15.34-4.1-23.05-6c-2.21-0.49-4.46-1.37-6.72-0.72C944.68,380.06,944.24,379.7,943.81,379.36z"/>
	<path fill="#DE5B6A" stroke="#DE5B6A" stroke-width="0.3" d="M945.14,380.43c2.26-0.65,4.51,0.23,6.72,0.72
		c7.71,1.9,15.54,3.38,23.05,6c3.98,1.4,8.26,1.51,12.44,1.55c-1.3,1.3-2.61,2.58-3.92,3.86c-2.78-2.06-5.82-4.36-9.47-4.21
		c-2.19-0.13-4,1.22-5.87,2.11c-3.25-2.59-7.57-2.55-11.1801-4.34c-1.8-0.89-3.8199-0.82-5.75-0.94
		C948.72,384.21,947.03,382.13,945.14,380.43z"/>
	<path fill="#DE5D6B" stroke="#DE5D6B" stroke-width="0.3" d="M991.79,388.35c12.02-3.56,24.39-5.64,36.7701-7.46
		c-2.6101,3.59-5.92,6.57-9.41,9.29c0-1.97,0.43-4.1-0.38-5.95c-2.67-0.97-4,2.13-5.59,3.65c-2.61-1.07-5.48-1.05-7.35,1.33
		c-2.07-0.58-4.29-1.56-6.41-0.69c-1.52,0.89-2.59,2.33-3.8,3.56C994.33,390.84,993.05,389.6,991.79,388.35z"/>
	<path fill="#FFFFFF" stroke="#FFFFFF" stroke-width="0.3" d="M1013.18,387.88c1.59-1.52,2.92-4.62,5.59-3.65
		c0.81,1.85,0.38,3.98,0.38,5.95c-0.61,1.49-1.19,2.99-1.7401,4.5c-4.95,3.16-11.1,3.43-15.89,6.81c-2.72,1.39-5.94,1.2-8.71,2.5
		c-2.99,1.41-6.14,0.15-9.1-0.55c-3.52,0.17-7.27,1.22-10.61-0.43c-4.17-2.38-9.88-1.61-12.68-6.15c-4.16-1.12-5.83-5.49-9.21-7.79
		c-0.02-1.3-0.04-2.6-0.05-3.89c1.9301,0.12,3.95,0.05,5.75,0.94c3.61,1.79,7.9301,1.75,11.1801,4.34c1.87-0.89,3.68-2.24,5.87-2.11
		c3.65-0.15,6.69,2.15,9.47,4.21c1.31-1.28,2.62-2.56,3.92-3.86c1.48-0.07,2.95-0.19,4.44-0.35c1.26,1.25,2.54,2.49,3.83,3.73
		c1.21-1.23,2.28-2.67,3.8-3.56c2.12-0.87,4.34,0.11,6.41,0.69C1007.7,386.83,1010.57,386.81,1013.18,387.88z"/>
	<path fill="#CD1F07" stroke="#CD1F07" stroke-width="0.3" d="M937.03,388.64c4.93,3.11,9.05,7.42,14.41,9.9
		c14.96,7.44,32.29,10.22,48.83,8.2c-1.27,3.36-5.18,3.6-8.21,4.1c-8.26,1.26-16.37-1.19-24.46-2.46c-2-0.57-4.18,0.61-4.75,2.61
		c-0.13,2.95,0.79,5.83,1.31,8.72c-8.02-3.1-12.55-10.9-17.44-17.47C943.72,397.54,940.34,393.11,937.03,388.64z"/>
	<path fill="#EA280A" stroke="#EA280A" stroke-width="0.3" d="M1000.27,406.74c10.9-3.32,20.16-10.07,29.65-16.09
		c-6.4401,7.67-12.72,15.48-19.08,23.22c-5.77,6.92-15.03,10.23-23.89,10.03c-7.76,0.33-15.53-0.89-22.72-3.82l-0.07-0.37
		c-0.52-2.89-1.44-5.77-1.31-8.72c0.57-2,2.75-3.18,4.75-2.61c8.09,1.27,16.2,3.72,24.46,2.46
		C995.09,410.34,999,410.1,1000.27,406.74z"/>
	<path fill="#D8B8A3" stroke="#D8B8A3" stroke-width="0.3" d="M1070.71,412.74c2.3-4.49,6.65-8.15,11.8401-8.44
		c-2.39,2.4-4.9601,4.74-6.3401,7.91c-2.23,4.72-5.6,8.83-7.48,13.71c-3.24,1.65-4.85,5.02-7.0499,7.73
		c-6.37,8.21-13.79,15.69-22.37,21.6c-12.7001,9.2-26.91,17.39-42.72,19.35c-11.94,1.52-24.32-1.31-34.58-7.55
		c-13.47-7.72-23.93-19.4-34.76-30.29c-6.56-6.64-12-14.32-18.65-20.85c-0.3199-0.42-0.98-1.27-1.31-1.69
		c6.33,1.04,10.9,5.93,14.76,10.67c3.98,5.03,8.81,9.3,12.9,14.24c3.34,3.99,7.53,7.11,11.27,10.7
		c8.16,7.93,17.63,14.76,28.41,18.64c11.49,4.02,24.24,2.87,35.51-1.35c11.41-4.45,21.8099-11.12,31.46-18.61
		C1053.52,438.62,1063.23,426.26,1070.71,412.74z"/>
	<path fill="#F1D1BC" stroke="#F1D1BC" stroke-width="0.3" d="M908.6,415.91c6.65,6.53,12.09,14.21,18.65,20.85
		c10.83,10.89,21.29,22.57,34.76,30.29c10.26,6.24,22.64,9.07,34.58,7.55c15.81-1.96,30.02-10.15,42.72-19.35
		c8.58-5.91,16-13.39,22.37-21.6c2.2-2.71,3.8099-6.08,7.0499-7.73c-2.15,11.82-3.5,24.4,0.62,35.96
		c2.03,5.92,6.16,11.05,11.49,14.33c15.53,9.82,32.65,17.54,50.86,20.61c5.7001,0.82,11.42,1.97,17.2101,1.74
		c-0.26,0.94-0.48,1.9-0.6801,2.87c-1.0699,3.38,0.4301,6.74,1.26,9.99c1.1901,3.95,1.62,8.21,3.86,11.78
		c6.36,23.04,8.4501,47.01,10.41,70.76c1,13.68,1.67,27.37,2.3199,41.07c-0.0199,5.09,0.77,10.31-0.62,15.29
		c-5.3099,17.04-15.2899,32.66-28.77,44.38c-11.7,10.43-26.34,16.9-41.36,20.89c-18.6699,4.97-37.9199,7.69-57.1799,8.81
		c-6.41-0.4-12.8101,0.02-19.17,0.71c-9.06,0.32-18.13,0.28-27.2,0.26c7.55-9.12,11.23-20.75,18.64-29.98
		c3.21-3.81,5.48-8.48,9.56-11.49c6.71-5.66,14.14-10.78,22.5701-13.44c2.3099-0.96,5.95-3.14,4.1799-6.1
		c-2.04-1.2-3.9,0.8-5.5499,1.75c-2.4901,1.94-5.9901,1.65-8.42,3.67c-3.08,2.31-6.75,3.75-9.53,6.47
		c-3.39,3.29-8.25,4.96-10.72,9.18c-2.64,4.31-5.8,8.24-8.81,12.28c-2.85,3.74-4.38,8.25-6.84,12.23
		c-3.24,4.87-5.74,10.28-10.07,14.35c-2.68-4.2599-3.93-9.2599-6.9-13.35c-1.73-2.41-3.14-5.05-3.73-7.97
		c-0.65-4.92-5.5099-7.2599-8.43-10.72c-3.42-4.23-7.47-7.87-10.91-12.06c-4.88-5.69-11.51-9.33-17.86-13.1
		c-3.71-2.3701-8.15-3.57-12.52-2.7c0,1.02,0.01,2.05,0.04,3.08c6.97,0.0601,12.56,4.4,18.31,7.76c3.12,2.09,6.34,4.18,8.83,7.06
		c4.73,6.84,10.79,12.66,17.02,18.12c1.7,3.15,2.1,6.8701,4.06,9.92c2.91,4.74,5.64,9.62,7.53,14.88c-2.82-0.07-5.63,0.08-8.44,0.18
		c-11.03-0.33-21.99-1.9-32.89-3.52c-14.22-2.09-28.33-5.14-41.97-9.69c-24.67-8.95-47.3-23.64-65.21-42.85
		c-3.47-3.92-6.73-8.02-9.78-12.27c-3.04-4.03-3.24-9.23-4.3-13.97c-3.22-17.42-8.34-34.41-13.3-51.39
		c-5.28-17.63-10.57-35.25-16.21-52.77c-1.6-5.27-3.08-10.58-4.4-15.92c-0.59-1.98-0.5-4.04-0.27-6.05
		c11.1-1.17,22.05-3.56,32.99-5.73c17.75-4,35.95-8.38,51.37-18.47c11.99-7.58,22.77-17.46,30.05-29.74
		C908.24,449.02,911.46,431.99,908.6,415.91z"/>
	<path fill="#BA9880" stroke="#BA9880" stroke-width="0.3" d="M1383.0699,418.58c7.67-0.92,15.3601-1.75,23.0601-2.44
		c7.53,2.2,14.78,5.77,20.41,11.34c7.4399,6.46,13.1499,14.79,16.2899,24.16c-2.2899,0.55-4.8099,1.91-7.0299,0.46
		c-9.52-4.91-18.8501-10.18-28.42-14.97c-2.62,2.49-5.3,4.92-8.01,7.31c-2.3199-0.2-4.65-0.2-6.95-0.15
		c3.72-3.22,7.5499-6.29,11.11-9.69c1.3199-1.06,2.8199-2.98,4.73-1.95c8.8199,3.97,17.01,9.22,25.75,13.35
		c-2.83-6.62-7.78-12.17-12.9301-17.1c-5.89-5.5-14.0599-8.25-22.08-7.24c-9.63,1.15-19.29,2.05-28.99,2.38
		c-3.26,0.1-6.59,0.1-9.6801,1.24c-8.5199,2.89-17.24,5.13-25.98,7.23c-3.9399,0.77-5.66,4.94-6.25,8.49
		c-0.5499,3.84-1.02,7.95,0.37,11.67c1.66,3.1,5.54,3.52,8.62,4.27c1.4601,1.47,3,2.88,4.5801,4.25c-3.11,1.27-6.13-0.64-9.16-1.18
		c-1.59-1.21-3.37-2.15-5.42-1.8c-2.74-2.19-4.24-5.7-4.12-9.17c-0.12-6.32,0.4301-13.31,4.67-18.35c3.61-4.09,9.45-4.09,14.41-4.98
		c7.0299-1.26,13.59-4.2,20.49-5.95C1369.3101,418.52,1376.26,419.56,1383.0699,418.58z"/>
	<path fill="#EACAB4" stroke="#EACAB4" stroke-width="0.3" d="M1370.01,424.04c9.7-0.33,19.36-1.23,28.99-2.38
		c8.02-1.01,16.1899,1.74,22.08,7.24c5.15,4.93,10.1001,10.48,12.9301,17.1c-8.74-4.13-16.9301-9.38-25.75-13.35
		c-1.91-1.03-3.41,0.89-4.73,1.95c-3.5601,3.4-7.39,6.47-11.11,9.69c-1.89,0.25-3.76,0.65-5.5901,1.11
		c-0.33-3.84-0.0699-7.72-0.59-11.53c-1.01-1.47-3.79-2.08-4.25,0.13c-0.6799,3.98-0.04,8.06-0.22,12.08
		c-5.98-4.95-10.91-11.14-17.41-15.46c-1.5499-0.99-3.85,1.13-2.75,2.71c2.4301,3.44,5.66,6.23,8.59,9.25
		c-3.47-0.26-7.83-0.87-10.1399,2.4c-2.6801,4.74,0.2999,9.97,2.1,14.45c-4.01-1.26-5.91-5.16-8.24-8.29
		c-3.51-4.67-4.0601-10.68-6.67-15.78c-0.8101,0.21-2.41,0.62-3.22,0.83c0.2,2.57,0.5399,5.14,1.25,7.64
		c-3.1801,1.79-7.47,2.71-9.0801,6.36c-1.24,2.21,0.05,4.65,0.89,6.75c-3.08-0.75-6.96-1.17-8.62-4.27
		c-1.39-3.72-0.9199-7.83-0.37-11.67c0.59-3.55,2.3101-7.72,6.25-8.49c8.74-2.1,17.4601-4.34,25.98-7.23
		C1363.42,424.14,1366.75,424.14,1370.01,424.04z"/>
	<path fill="#BA9880" stroke="#BA9880" stroke-width="0.3" d="M1361.61,433.33c-1.1-1.58,1.2001-3.7,2.75-2.71
		c6.5,4.32,11.4301,10.51,17.41,15.46c0.1799-4.02-0.46-8.1,0.22-12.08c0.46-2.21,3.24-1.6,4.25-0.13
		c0.52,3.81,0.26,7.69,0.59,11.53c-3.12,0.75-5.88,3.28-4.75,6.76c-0.2699,2.46-0.97,4.83-1.6799,7.19
		c-0.52,0.22-1.55,0.67-2.0701,0.89c0.76-2.61,1.7001-5.48,0.77-8.16c-1.96-3.99-5.78-6.51-8.9-9.5
		C1367.27,439.56,1364.04,436.77,1361.61,433.33z"/>
	<path fill="#BA9880" stroke="#BA9880" stroke-width="0.3" d="M1344.03,436.19c0.8099-0.21,2.4099-0.62,3.22-0.83
		c2.61,5.1,3.16,11.11,6.67,15.78c2.33,3.13,4.23,7.03,8.24,8.29c2.13,2.21,4.2899,4.4,6.74,6.27c-4.3,0.17-8.23-1.64-11.87-3.71
		c-1.49-1.03-3.3-0.42-4.91-0.22c1.49-1.76,3.28-4.16,1.53-6.39c-2.53-3.99-4-9.15-8.37-11.55
		C1344.5699,441.33,1344.23,438.76,1344.03,436.19z"/>
	<path fill="#A0EFFF" stroke="#A0EFFF" stroke-width="0.3" d="M1407.38,437.13c9.5699,4.79,18.9,10.06,28.42,14.97
		c2.22,1.45,4.74,0.09,7.0299-0.46c0.4401,1.22,1.0801,2.47,2.17,3.29c5.97,5.01,11.65,10.37,17.3,15.75
		c11.0399,10.5,19.6899,23.13,28.8099,35.26c12.89,17.68,25.63,35.48,38.01,53.53c8.13-0.9,16.2-2.3199,24.35-3.12l-1.14,0.58
		c-7.26,1.6-14.7,2.09-22.0199,3.28c-0.29,1.15-0.55,2.3-0.8,3.45c-0.86,0.36-1.7,0.7-2.53,1.04c-0.71,0.12-2.13,0.37-2.84,0.49
		c-3.05,0.31-6.12,0.26-9.08-0.47c0.1799,0.32,0.5399,0.96,0.72,1.28c3.97,7.11,7.46,14.48,11.46,21.57
		c-0.12,1.58-0.7,3.01-1.79,4.15c7.16-0.75,14.38-0.23,21.5601-0.37c5.04,0.26,9.95-1.22,14.98-1.1c4.95,0,9.9,0.31,14.87,0.33
		c-2.45-0.06-4.89-0.22-7.21-0.96c6.11-0.75,12.2899-0.02,18.4299-0.65c6.9501-0.71,13.9401-0.71,20.9301-0.8
		c9.14-0.58,18.33-1.35,27.49-0.66c-0.12,3.48,0.92,6.83,1.98,10.1c49.4401,169.18,98.9401,338.35,148.41,507.52
		c1.49,4.5699,2.4,9.33,4.17,13.8199c0.3199,1.76,3.25,2.3101,3.5199,0.15c-0.4199-5.1699-2.62-9.97-3.86-14.96
		c-49.36-168.69-98.65-337.39-148.01-506.07c-1.1-3.48-1.63-7.22-3.72-10.29c-0.3199-1.45-0.5-2.91-0.67-4.36
		c-5.9299-3-12.85-4.8-17.59-9.63c0.13-0.3,0.39-0.91,0.52-1.22c8.74-2.42,17.53-4.82,26.4-6.77c11.97-1.93,23.6-5.7,35.35-8.72
		c59.77,155.23,119.21,310.58,178.88,465.84c2,5.94,5.38,11.6201,5.3,18.08c0.2,21.27,0.8199,42.5601,0.4399,63.8199
		c-4.0699,3.6101-9.16,5.91-13.5599,9.1101c-18.28,11.7899-36.5901,23.5399-54.8401,35.37c-2.03,1.2-3.88,2.95-6.24,3.38
		c-28.33,0.46-56.65-1.12-84.98-1.05c-11.6899-0.1901-23.37-0.34-35.04-0.87c-27.6799,0.22-55.33-1.1901-83-1.14
		c-10.98-0.27-21.98-0.1899-32.9399-0.83c-17.01-0.0601-34.02-0.24-51.03-0.63c-0.0599,1.2899-0.11,2.6-0.13,3.9199
		c13.03,0.42,26.0701,0.17,39.11,0.5901c4.8101,0.2899,9.76-0.53,14.48,0.83c-17.98-0.23-35.95-0.71-53.9199-0.85
		c0-13.24,0.11-26.47,0.7899-39.6901c0.25-28.99,1.42-57.96,1.4501-86.96c0.89-24.65,0.7999-49.32,1.03-73.97
		c1.46-63.69,0.6799-127.44-3.24-191.02c-1.8-23.65-1.8501-47.38-2.3201-71.08c-0.8199-14.32-0.5699-28.67-1-42.99
		c-0.64-11.55-0.79-23.12-0.59-34.67c-0.62-0.2-1.84-0.58-2.4601-0.78c-12.0399-3.81-24.09-7.61-36.12-11.45
		c-7-2.14-13.8899-4.71-21.12-5.98c6.67,0.47,13.37,0.13,20.0601,0.45c3.55,0.23,7.04-0.57,10.54-1.09
		c6.48-0.56,13.0299,0.64,19.49-0.42c7.2-1.24,14.5299-0.45,21.7999-0.52c-0.75-1.54-1.49-3.07-2.1899-4.6
		c-2.9501-6.71-6.39-13.17-9.65-19.72c-0.5-1.02-0.98-2.04-1.4399-3.05c-9.3,0.37-18.42,2.64-27.6201,3.9
		c-12.61,1.91-25.1,4.6-37.74,6.18l1.1101-0.6c21.09-3.97,42.2899-7.45,63.5299-10.59c-9.64-18.63-19.8199-36.99-31.34-54.53
		c-6.67-10.06-13.96-19.73-22.24-28.51c-5.47-5.6-11.03-11.13-17.33-15.8c-2.8501-2.21-6.0601-4.17-7.7401-7.49
		c-4.85-7.61-13.84-10.26-21.8199-13.23C1402.08,442.05,1404.76,439.62,1407.38,437.13z"/>
	<path fill="#ECE6E1" stroke="#ECE6E1" stroke-width="0.3" d="M1360.0601,444.98c2.3099-3.27,6.6699-2.66,10.1399-2.4
		c3.12,2.99,6.9401,5.51,8.9,9.5c0.9301,2.68-0.01,5.55-0.77,8.16c-1.7999,3.59-5.51,5.44-9.4299,5.46
		c-2.4501-1.87-4.61-4.06-6.74-6.27C1360.36,454.95,1357.38,449.72,1360.0601,444.98z"/>
	<path fill="#ECE6E1" stroke="#ECE6E1" stroke-width="0.3" d="M1336.2,450.19c1.6101-3.65,5.9-4.57,9.0801-6.36
		c4.37,2.4,5.84,7.56,8.37,11.55c1.75,2.23-0.04,4.63-1.53,6.39c-2.91,0.51-5.85,0.72-8.79,0.76c-0.4199-0.34-1.25-1.01-1.6599-1.34
		c-1.5801-1.37-3.12-2.78-4.5801-4.25C1336.25,454.84,1334.96,452.4,1336.2,450.19z"/>
	<path fill="#FF81E5" stroke="#FF81E5" stroke-width="0.3" d="M1386.83,445.4c1.8301-0.46,3.7001-0.86,5.5901-1.11
		c2.2999-0.05,4.63-0.05,6.95,0.15c7.98,2.97,16.97,5.62,21.8199,13.23c1.6801,3.32,4.89,5.28,7.7401,7.49
		c3.95,8.78,7.09,17.92,9.37,27.27c2.73,11.57,4.5399,23.51,3.95,35.41c-2.23,15.86-5.8101,31.48-9.0699,47.15
		c0.7899-0.1,2.35-0.3,3.13-0.4l-1.1101,0.6c-1.4299,0.19-2.8899,0.29-4.2799,0.44c-2.66,0.49-2.88,3.32-3.5,5.44
		c-0.63,2.45-1.24,4.9-1.88,7.35c-3.9701-1.37-8.0601-2.33-12.12-3.34c-0.3501,1.06-0.7001,2.11-1.05,3.17
		c-2.53,5.66-4.58,11.51-7.1801,17.14l-0.0499-1.24c-1.86,2.58-3.76,5.12-5.74,7.61c-1.4401,7.98-0.34,16.18-0.9301,24.25
		c-1.0399,15.3-0.63,30.65-1.65,45.95c-0.09,12.04-0.47,24.08-1.0599,36.11c0.08,14.32-1.15,28.6-1.11,42.92
		c-0.85,25.74-1.7001,51.48-2.25,77.23c-1.04,14.23-0.51,28.51-1.52,42.75c-0.22,12.35-0.4401,24.72-1.12,37.0601
		c0.1,16.71-1.3101,33.36-1.22,50.06c-0.8201,12.49-0.8301,24.99-1.13,37.5c-0.9401,12.12-0.54,24.28-1.24,36.42
		c-0.7201,9.96-0.3,19.97-0.8201,29.95c-0.9,15.3201-0.59,30.6901-1.5699,46.01c0.13,14.3401-1.14,28.64-1.12,42.97
		c-0.1,7.04-0.63,14.0801-0.4301,21.14c1.5601-0.0199,4.0701,0.3401,3.73-2.0499c0.8201-11.98,0.03-24.04,1.2101-36.02
		c0.1599-11.01,0.45-22.02,1.0499-33.01c0-11.36,0.5-22.6899,1.01-34.03c-0.0699-15.02,1.1-30.01,1.16-45.03
		c0.89-25.64,1.61-51.27,2.3199-76.9099c0.8401-14,0.4501-28.03,1.4301-42.02c0.1799-12.35,0.42-24.7,1.09-37.03
		c-0.1-14,1.03-27.97,1.1-41.96c1.88-60.66,3.6801-121.32,5.4601-181.98c0.8999-12.52,0.12-25.13,1.4299-37.62
		c0.35-1.06,0.72-2.11,1.14-3.15c30.1,1.55,60.17,3.72,90.27,5.34c2.59-0.31,2.47,2.59,2.6,4.4
		c0.34,11.32,0.4501,22.66,0.5701,33.99c0.72,14.33,0.8899,28.67,0.99,43.01c0.5399,10.98,0.84,21.97,0.8999,32.97
		c-0.1899,13.7,1.77,27.32,2.05,41.01c1.67,23.32,2.1,46.7,2.89,70.06c0.3,53.97,0.41,107.96-0.87,161.91
		c0.15,25.7-1.13,51.3599-1.17,77.05c-0.15,12.99-1.02,25.96-0.9199,38.96c0.0199,14.6901-1.0701,29.3401-0.99,44.03
		c-0.12,8.66-0.3601,17.3199-0.8401,25.97c-0.27,11.3-0.0399,22.63-0.9399,33.91c-7.29,0.9399-14.65,0.58-21.9601,0.99
		c-10.9399,1.05-21.95,0.4-32.8799,1.47c-14.7001,0.0601-29.3401,1.39-44.04,1.39c-10.74,0.24-21.64,1.91-32.29,0.48
		c-51.7999-24.1599-103.63-48.27-155.4299-72.4099c-6.8401-3.2101-12.75-7.99-19.14-11.9501c-5.92-3.66-11.35-8.1699-17.75-10.97
		c-0.0701-0.14-0.2001-0.4301-0.27-0.5699c-1.34-8.53-1.26-17.16-1.11-25.75l0.0399-0.3301c2.3-12.0499,1.67-24.4199,0.1001-36.52
		c-0.8201-7.74-1.55-15.51-3.11-23.14c-0.6901-9.71,0.2-19.4299,0-29.15c0.8199-13.62,3.4399-27.03,6.0599-40.39
		c2.42-11.42,4.95-23.03,10.37-33.45c4.49-8.77,14.79-13.9,16.59-24.14c0.5801-2.71,0.9501-5.46,1.1901-8.2
		c4.1,3.52,7.6,7.66,11.74,11.14c0.6,0.75,1.22,1.52,1.84,2.3c0.98,2.12,2.27,4.1,3.86,5.84l0.1901,0.4
		c0.0499,1.32,0.74,2.09,2.0699,2.31l0.1,0.26c0.9601,3.74,2.7001,7.21,5.0901,10.26l0.22,0.43l0.17,0.39l0.23,0.43l0.45,0.93
		l0.1901,0.44l0.11,0.21l0.36,0.81c0.46,3.13,1.63,6.18,4.14,8.24c0.34,0.43,1.02,1.29,1.35,1.72l0.09,0.12l0.0601,0.1201
		l0.4099,0.92c0.4801,2.56,2.52,4.13,4.5601,5.5c1.48,1.5,2.97,3.01,4.46,4.53c1.5901,2.41,3.61,4.59,6.4601,5.5l0.21,0.12
		c0.39,1.33,1.3,2.01,2.74,2.03l0.63,0.16c0.26,0.08,0.78,0.23,1.04,0.31l0.62,0.16c0.8199,1.2,1.9399,1.63,3.37,1.28l0.35,0.04
		c4.04,1.47,8.39,0.73,12.6,0.92c2.5701,0.11,5.17-0.14,7.63-0.98c0.34,0.01,1.01,0.03,1.34,0.04c1.4601,0.27,3.03,0.03,4.2101-0.97
		c0.4-0.05,1.2-0.16,1.6-0.21c1.35,0.52,2.46,0.21,3.3099-0.95l0.8601,0.09c1.37,0.42,2.4299,0.05,3.1799-1.13l0.87,0.13
		c1.36,0.45,2.41,0.07,3.13-1.15l0.8101,0.13c1.33,0.4,2.37,0.02,3.14-1.15l0.7699,0.09c0.55-0.26,1.64-0.79,2.1801-1.06l0.87,0.09
		c0.54-0.27,1.61-0.8101,2.15-1.08l0.87,0.09c0.53-0.28,1.6-0.83,2.13-1.11l0.8199,0.09c0.5601-0.23,1.6801-0.69,2.23-0.91
		l0.41-0.09c2.71-0.3,6.1901-1.01,6.59-4.32l0.4501-1.15l0.0499-0.11l0.05-0.12l0.41-0.91c3.97-7.08,7.6699-14.37,10.86-21.84
		l0.48-0.99l0.13-0.24l0.1799-0.3701l0.55-1.04l0.27-0.39l0.17-0.48l0.5-1.05c0.0699-0.14,0.22-0.44,0.2999-0.58l0.4501-0.78
		c2.84-2.83,4.72-6.4,6.2699-10.05c0.12-0.14,0.3501-0.43,0.4601-0.5699c2.02-1.38,3.7-3.16,4.5499-5.5
		c0.2201-0.32,0.66-0.96,0.89-1.28c1.8201-0.09,3.0601-1.56,2.89-3.37c0.23-0.33,0.6901-0.99,0.92-1.32
		c2.95-1.82,5.1699-4.63,6-8.01l0.14-0.39c1.37-0.03,2.0599-0.7599,2.0599-2.19l0.0701-0.8799c2.24-0.25,2.7699-2.57,2.7899-4.45
		l0.35-0.82c0.1001-0.2,0.28-0.59,0.38-0.78l0.4801-1.03c0.0699-0.15,0.23-0.45,0.2999-0.6l0.47-0.84
		c1.9801-2.65,3.14-5.86,2.9601-9.2l0.02-0.43c1.7799-0.46,1.3899-2.68,1-3.98l0.23-0.86c1.33-1.42,1.33-3.43,0.6899-5.14l0.37-1.06
		c1.39-2.06,1.24-4.57,0.55-6.84c0.11-0.54,0.33-1.62,0.4399-2.15c1.38-2.08,1.24-4.59,0.5701-6.87l0.4199-1.06
		c1.3201-1.76,1.3101-3.98,0.62-5.97l0.3601-0.97c1.1899-1.47,1.3199-3.4,0.6599-5.11c0.0901-0.46,0.25-1.38,0.3301-1.84
		c1.3199-1.4301,1.2999-3.4301,0.6699-5.14c0.0801-0.34,0.24-1.04,0.3201-1.38c0.9399-2.86,0.9199-5.88,0.7999-8.85l0.0801-0.35
		c1.36-3.49,1.0399-7.24,0.75-10.88c0.1-0.49,0.2799-1.49,0.38-1.98c1.49-5.82,0.7699-11.87,0.64-17.8
		c0.12-1.1,0.2599-2.19,0.4199-3.27c1.3101-6.07,0.63-12.31,0.79-18.46c-0.12-8.09,0.4299-16.24-0.89-24.25
		c-0.05-0.37-0.15-1.1-0.1901-1.46c-0.1599-9.48,0.88-19.09-0.9099-28.46l-0.0701-0.55c-0.11-7.85,0.67-15.78-0.83-23.53
		c-0.08-0.59-0.23-1.77-0.3-2.36c0.7001-15.79-0.49-31.58,0.0801-47.37c0.2-8.72,0.0699-17.45,0.08-26.17l0.11-0.69
		c0.9501-3.56,1.01-7.26,0.87-10.92c0.64-3.06-0.09-6.36,1.27-9.2599c0.91,0.59,1.85,1.16,2.8101,1.71
		c-0.7001,0.14-2.12,0.41-2.8301,0.54c-0.86,1.12-0.87,2.24,0,3.37c3.78,1.39,7.8201,1.85,11.8,2.5c0.52-1.27,1.1-2.52,1.58-3.81
		c2.23-5.85,5.49-11.26,7.61-17.17c0.4301-1.1,0.88-2.2,1.3401-3.28c-2.8201-0.99-5.62-2.01-8.42-3.01l1.24-0.22
		c2.54,0.68,5.05,1.5099,7.5699,2.36c10.2401-25.46,19.4801-51.95,20.8301-79.59c0.02-6.16-2.12-12.04-3.28-18.03
		c-1.74-6-2.12-12.65-5.99-17.8c-2.63-3.98-7.41-5.43-11.4-7.59c-6.75-4.06-15.6-0.9-22.02-5.78
		C1380.95,448.68,1383.71,446.15,1386.83,445.4 M1431.58,525c-0.59,6.47-2.5199,12.74-4.14,19.01
		c-3.7899,13.59-8.62,26.86-13.5099,40.08c2.12,0.7,4.2699,1.37,6.48,1.87C1425.95,566.04,1430.27,545.65,1431.58,525z"/>
	<path fill="#F1D1BC" stroke="#F1D1BC" stroke-width="0.3" d="M1382.08,452.16c6.42,4.88,15.27,1.72,22.02,5.78
		c3.99,2.16,8.77,3.61,11.4,7.59c3.87,5.15,4.25,11.8,5.99,17.8c1.16,5.99,3.3,11.87,3.28,18.03c-10.21,5.35-21.42,8.45-32.65,10.83
		c-3.7,20.58-7.39,41.21-9.42,62.02c4.5701,1.4,9.13,2.85,13.67,4.38l-1.24,0.22c-4.33-1.2-8.52-2.86-12.91-3.78
		c-0.65,2.39,0.4601,4.16,2.78,4.73c-0.67,0.06-2.01,0.16-2.6801,0.22c-0.3899,5.98,0.5701,12.15-1.08,17.98
		c-1.36,2.9-0.63,6.2-1.27,9.2599c-1.59,3.45-0.85,7.27-0.87,10.92l-0.11,0.69c-1.3,5.29-0.99,10.77-1.01,16.17
		c0.03,15.66,0,31.32,0.01,46.98c-0.04,3.47,0.24,6.96,0.84,10.39c0.0701,0.59,0.2201,1.77,0.3,2.36
		c-0.05,7.83-0.8,15.79,0.83,23.53l0.0701,0.55c0.1699,9.48-0.74,19.06,0.9099,28.46c0.04,0.36,0.14,1.09,0.1901,1.46
		c-0.13,14.23-0.37,28.48,0.1,42.71c-0.16,1.08-0.2999,2.17-0.4199,3.27c-1.1001,5.87-0.9501,11.86-0.64,17.8
		c-0.1001,0.49-0.28,1.49-0.38,1.98c-0.9301,3.55-0.9,7.23-0.75,10.88l-0.0801,0.35c-1.14,2.82-1.09,5.86-0.7999,8.85
		c-0.0801,0.34-0.24,1.04-0.3201,1.38c-1.27,1.44-1.35,3.4-0.6699,5.14c-0.0801,0.46-0.24,1.3799-0.3301,1.84
		c-1.39,1.37-1.34,3.38-0.6599,5.11l-0.3601,0.97c-1.3199,1.74-1.36,3.96-0.62,5.97l-0.4199,1.06
		c-1.4501,2.05-1.2101,4.56-0.5701,6.87c-0.11,0.53-0.33,1.61-0.4399,2.15c-1.41,2.05-1.21,4.54-0.55,6.84l-0.37,1.06
		c-1.24,1.44-1.38,3.39-0.6899,5.14l-0.23,0.86c-1.13,1.0099-1.4,2.54-1,3.98l-0.02,0.43c-1.29,2.96-2.3,6.04-2.9601,9.2l-0.47,0.84
		l-0.14,0.23l-0.1599,0.37l-0.4801,1.03c-0.1,0.19-0.2799,0.58-0.38,0.78l-0.35,0.82c-1.47,1.06-2.95,2.46-2.7899,4.45
		l-0.0701,0.8799c-1.34,0.02-2.03,0.7401-2.0599,2.19l-0.14,0.39c-2.27,2.45-4.35,5.08-6,8.01c-0.23,0.33-0.6901,0.99-0.92,1.32
		c-1.63,0.4-2.72,1.72-2.89,3.37c-0.23,0.32-0.6699,0.96-0.89,1.28c-1.9399,1.45-3.46,3.34-4.5499,5.5
		c-0.11,0.14-0.3401,0.43-0.4601,0.5699c-2.84,2.82-5.01,6.2401-6.2699,10.05l-0.4501,0.78l-0.14,0.23l-0.1599,0.35l-0.5,1.05
		c-0.1101,0.22-0.3301,0.65-0.4401,0.87l-0.55,1.04l-0.1899,0.36l-0.12,0.25l-0.48,0.99c-4.0701,7.04-7.8101,14.3-10.86,21.84
		l-0.41,0.91l-0.05,0.11l-0.0499,0.12l-0.4501,1.15c-2.0199,1.7-4.2799,3.09-6.59,4.32l-0.41,0.09
		c-0.5499,0.22-1.6699,0.68-2.23,0.91l-0.8199-0.09c-0.53,0.28-1.6,0.83-2.13,1.11l-0.87-0.09c-0.54,0.27-1.61,0.81-2.15,1.08
		l-0.87-0.09c-0.54,0.27-1.63,0.8-2.1801,1.06l-0.7699-0.09c-1.42-0.49-2.4701-0.11-3.14,1.15l-0.8101-0.13
		c-1.37-0.45-2.42-0.06-3.13,1.15l-0.87-0.13c-1.39-0.47-2.45-0.1-3.1799,1.13l-0.8601-0.09c-1.38-0.5-2.48-0.18-3.3099,0.95
		c-0.4,0.05-1.2,0.16-1.6,0.21c-1.39-0.4301-3.6801-0.88-4.2101,0.97c-0.33-0.01-1-0.03-1.34-0.04c-6.75-0.02-13.49,0.24-20.23,0.06
		l-0.35-0.04c-0.8-1.22-1.92-1.65-3.37-1.28l-0.62-0.16c-0.26-0.08-0.78-0.23-1.04-0.31l-0.63-0.16c-0.37-1.45-1.28-2.13-2.74-2.03
		l-0.21-0.12c-1.8201-2.21-3.9701-4.11-6.4601-5.5c-1.49-1.52-2.98-3.03-4.46-4.53c-1.17-2.11-2.77-3.92-4.5601-5.5l-0.4099-0.92
		l-0.0601-0.1201l-0.09-0.12c-0.33-0.43-1.01-1.29-1.35-1.72c-1.03-2.92-2.37-5.71-4.14-8.24l-0.36-0.81l-0.0901-0.22l-0.21-0.43
		l-0.45-0.93l-0.1901-0.47l-0.21-0.35l-0.22-0.43c-0.89-3.78-2.7001-7.24-5.0901-10.26l-0.1-0.26c0.03-1.54-0.6599-2.31-2.0699-2.31
		l-0.1901-0.4c-0.86-2.21-2.3099-4.1-3.86-5.84c-0.62-0.78-1.24-1.55-1.84-2.3c-3.37-4.6-7.77-8.28-11.74-12.32c0,0.3,0,0.89,0,1.18
		c-0.24,2.74-0.61,5.49-1.1901,8.2c-0.26-6.83-0.39-13.65-0.23-20.48c0.27-7.52-2.97-14.54-3.76-21.93
		c-1.89-25.35,2.1801-50.65,1.5801-76c-0.0601-22.78,2.25-45.5,5.4399-68.04c0.46-4,1.88-8,1.1801-12.05
		c-2.27-10.74-5.2001-21.41-10.13-31.27c-5.51-10.9-10.5-22.06-15.98-32.97c-2.6801-5.86-1.9701-12.49-2.41-18.74
		c-2-27.34-3.4-54.72-5.98-82.02c-1.77-18.35-4.91-36.53-7.92-54.7c21.66,4.34,43.78,6.51,65.02,12.84
		c15,4.39,30.42,10.14,41.66,21.46c6.5,6.33,10.36,15.34,9.9199,24.47c-0.74,20.84,3.7001,41.39,4.55,62.16
		c0.4199-0.13,1.26-0.39,1.6699-0.52c0.3601,6.53-5.73,10.96-5.8999,17.35c-0.52,13.94-4.99,27.26-8.1801,40.72
		c-4.49,16.77-8.47,33.6801-13.71,50.23c-9.42,29.11-20.76,57.58-33.37,85.45c-1.8201,4.41-4.5801,8.48-5.48,13.24
		c0.97,0.41,1.95,0.83,2.95,1.26c4.15-5.84,6.65-12.64,9.8199-19.02c18.4801-39.38,31.64-80.98,43.1001-122.86
		c5.1899-18.82,7.98-38.18,13.0599-57.03c8.41-36.05,17.04-72.73,15.3301-110.02c-1.0701-10.94-7.64-20.83-7.0801-32.02
		c0-4.34,2.63-8.15,5.67-11.02c6.24-5.69,14.0699-9.24,21.96-11.99c5.3101-1.83,10.8-3.4,16.47-3.41
		c2.9401-0.04,5.88-0.25,8.79-0.76c1.61-0.2,3.42-0.81,4.91,0.22c3.64,2.07,7.5699,3.88,11.87,3.71
		c3.9199-0.02,7.63-1.87,9.4299-5.46c0.52-0.22,1.55-0.67,2.0701-0.89C1381.11,456.99,1381.8101,454.62,1382.08,452.16z"/>
	<path fill="#C7A58F" stroke="#C7A58F" stroke-width="0.3" d="M1327.09,458.21c2.05-0.35,3.8301,0.59,5.42,1.8
		c3.03,0.54,6.05,2.45,9.16,1.18c0.4099,0.33,1.24,1,1.6599,1.34c-5.6699,0.01-11.1599,1.58-16.47,3.41
		c-7.89,2.75-15.72,6.3-21.96,11.99c-3.04,2.87-5.67,6.68-5.67,11.02c-0.5599,11.19,6.01,21.08,7.0801,32.02
		c1.71,37.29-6.92,73.97-15.3301,110.02c-5.08,18.85-7.87,38.21-13.0599,57.03c-11.4601,41.88-24.62,83.48-43.1001,122.86
		c-3.1699,6.38-5.6699,13.18-9.8199,19.02c-1-0.4301-1.98-0.85-2.95-1.26c0.8999-4.76,3.6599-8.83,5.48-13.24
		c12.61-27.87,23.95-56.34,33.37-85.45c5.24-16.55,9.22-33.46,13.71-50.23c3.1901-13.46,7.66-26.78,8.1801-40.72
		c0.1699-6.39,6.26-10.82,5.8999-17.35c0.7301-4.9,2.1001-9.67,3.1001-14.52c5.11-23.08,9.24-46.48,10.24-70.13
		c-0.04-7.51,0.7-15.24-1.67-22.49c-2.58-8.62-6.24-17.27-5.65-26.44c0.37-6.72,4.99-12.29,10.2101-16.11
		c7.2699-5.56,15.96-8.69,24.46-11.83C1328.8101,459.65,1327.66,458.69,1327.09,458.21z"/>
	<path fill="#C7A58F" stroke="#C7A58F" stroke-width="0.3" d="M576.11,461.39c8.01-2.97,16.58,0.21,23.94,3.58
		c6.12-1.95,12.71-3.72,19.14-2.25c4.57,1,9.19,3.66,10.98,8.19c4.47,9.04,2.43,19.41,3.95,29.05c0.83,2.11,3.01,3.37,4.99,4.3
		c3.86,1,7.89,0.12,11.82,0.22c5.78-0.22,11.04,2.63,15.89,5.46c6.2,3.81,11.85,8.44,18.2,12.01c4.5,2.48,7.18,6.96,9.59,11.31
		l1.38-0.13c-0.57,0.19-1.7,0.59-2.27,0.79c0.34,2.68,0.58,5.4,1.32,8.02c5.65,16.73,10.02,34.25,9.37,52.03
		c0.29,14.65-1.5099,29.5,1.45,43.98c9.85,47.1,20.87,94.02,35.28,139.95c10.89,34.12,24.13,67.46,38.94,100.06
		c2.67,5.66,3.27,11.97,4.22,18.08c1.47,9.57,1.19,19.29,1.18,28.94c-0.18,5.22,0.04,10.51-0.99,15.65c-0.24,2.06-2.58,2.04-4.1,2.5
		c1.87-17.2,2.15-34.7-0.78-51.81c-0.68-4.5-1.79-8.95-3.76-13.06c-18.95-41.71-35.16-84.71-47.34-128.89
		c-10.1-36.13-18.61-72.69-26.29-109.41c-4-18.12-0.72-36.68-1.72-55.01c-0.76-9.07-2.44-18.05-4.68-26.87
		c-1.98-8.36-5.82-16.28-6.3-24.97c-0.1-3.95-3.46-6.38-6.65-7.97c-9.06-4.66-16.4-12.26-26.12-15.69
		c-4.77-1.74-9.88-0.62-14.8-0.78c-3.61,0.03-6.71-2.06-9.81-3.63c-1.27,2.94-2.29,6.14-4.65,8.42c-3.8,3.68-9.55,4.92-14.64,3.78
		c-3.27-0.8-5.42-3.53-7.21-6.17c1.02-1.04,1.98-2.13,2.97-3.2c0.28,0.73,0.57,1.48,0.86,2.24c0.7401,1.87,0.32,4.96,2.73,5.63
		c2.73,0.85,5.9,1.31,8.57-0.01c2.06-0.97,2.52-3.44,3.51-5.28c1.73-2.56,3.5-5.25,3.78-8.42c1.01-9.2,0.98-18.69-1.64-27.64
		c-1.03-3.86-4.63-6.58-8.53-7c-6.12-1.16-11.98,0.94-17.81,2.37c-5.38-1.41-10.33-4.77-16.1-4.53c-5.03-0.42-9,3.07-12.82,5.78
		c-3.74-2.16-8.17-2.29-12.29-3.22c2.91-0.26,5.84-0.1,8.75,0.19C569.87,465.15,572.58,462.51,576.11,461.39z"/>
	<path fill="#EACAB4" stroke="#EACAB4" stroke-width="0.3" d="M571.16,471.01c3.82-2.71,7.79-6.2,12.82-5.78
		c5.77-0.24,10.72,3.12,16.1,4.53c5.83-1.43,11.69-3.53,17.81-2.37c3.9,0.42,7.5,3.14,8.53,7c2.62,8.95,2.65,18.44,1.64,27.64
		c-0.28,3.17-2.05,5.86-3.78,8.42c-0.55-3.53-0.52-7.33-2.32-10.52c-2.09-3.66-7.83-3.54-10.25-0.3
		c-2.28,2.97-2.25,6.91-2.2401,10.48c-0.29-0.76-0.58-1.51-0.86-2.24c-1.63-4.51-3-9.13-4.01-13.81c-0.25-4.98-1.15-9.89-2.18-14.75
		c-1.02,0.21-2.36-0.05-3.02,0.97c-0.4301,4.29,0.66,8.53,1.35,12.74c-3.18,0.15-6.7,0.35-9.3,2.42c-2.37,2.3-2.16,5.82-1.86,8.83
		C579.8,495.75,575.22,482.98,571.16,471.01z"/>
	<path fill="#F1D1BC" stroke="#F1D1BC" stroke-width="0.3" d="M1428.9301,465.16c6.2999,4.67,11.86,10.2,17.33,15.8
		c-1.97,4.25-4.75,8.07-7.96,11.47C1436.02,483.08,1432.88,473.94,1428.9301,465.16z"/>
	<path fill="#BA9880" stroke="#BA9880" stroke-width="0.3" d="M542.64,475.51c3.93-4.8,10.12-7.35,16.23-7.72
		c4.12,0.93,8.55,1.06,12.29,3.22c4.06,11.97,8.64,24.74,18.4301,33.26c1.19,2.4,2.36,4.95,4.73,6.45
		c-3.22-0.66-6.06-2.34-8.71-4.21c-0.35-1.9-0.68-3.79-1.14-5.65c-1.81-4.6-5.91-7.77-10.1-10.11c-2.36-6.06-4.95-12.03-7.04-18.19
		c-6.45-0.83-13.63-0.42-18.77,4.05c-3.5,3.21-6.54,7.44-7.34,12.19c1.19,1.47,2.8101,2.52,4.3701,3.58
		c5.91,3.88,11.83,7.83,18.35,10.64c0.6,1.8,1.29,3.57,1.93,5.37c-0.81-0.2-2.41-0.6-3.21-0.8c-4.59-4.28-9.3-8.53-14.64-11.85
		c-1.53-0.74-3.1,0.18-4.54,0.65c-5.35-6.05-16.53-7.8-21.96-0.94c-4.1,4.97-9.27,11.49-7.04,18.27c-1.31,1.39-2.63,2.78-3.9,4.21
		c-2.94-8.62,1.57-17.61,7.08-24.12c4.11-5.68,11.75-8.29,18.4901-6.37C537.87,483.25,539.63,478.97,542.64,475.51z"/>
	<path fill="#EACAB4" stroke="#EACAB4" stroke-width="0.3" d="M548.56,476.61c5.14-4.47,12.32-4.88,18.77-4.05
		c2.09,6.16,4.68,12.13,7.04,18.19c-3.31,0.8-7.01,1.55-9.21,4.41c-1.9,2.16-1.5,5.23-1.22,7.86c-6.52-2.81-12.44-6.76-18.35-10.64
		c-1.56-1.06-3.1801-2.11-4.3701-3.58C542.02,484.05,545.06,479.82,548.56,476.61z"/>
	<path fill="#BD9B83" stroke="#BD9B83" stroke-width="0.3" d="M599.4,480.28c0.66-1.02,2-0.76,3.02-0.97
		c1.03,4.86,1.93,9.77,2.18,14.75c-1.29-0.37-2.5699-0.72-3.85-1.04C600.06,488.81,598.97,484.57,599.4,480.28z"/>
	<path fill="#F1D1BC" stroke="#F1D1BC" stroke-width="0.3" d="M521.52,495.45c5.43-6.86,16.61-5.11,21.96,0.94
		c-3.78,1.59-6.74,4.42-9.88,6.94c-7.1,1.8-14.1,4.87-19.12,10.39C512.25,506.94,517.42,500.42,521.52,495.45z"/>
	<path fill="#ECE6E1" stroke="#ECE6E1" stroke-width="0.3" d="M565.16,495.16c2.2-2.86,5.9-3.61,9.21-4.41
		c4.19,2.34,8.29,5.51,10.1,10.11c-0.31,2.93,0.58,7.3-2.8,8.73c-5.15,1.99-10.8,0.51-15.8-1.2c-0.64-1.8-1.33-3.57-1.93-5.37
		C563.66,500.39,563.26,497.32,565.16,495.16z"/>
	<path fill="#ECE6E1" stroke="#ECE6E1" stroke-width="0.3" d="M591.45,495.44c2.6-2.07,6.12-2.27,9.3-2.42
		c1.28,0.32,2.56,0.67,3.85,1.04c1.01,4.68,2.38,9.3,4.01,13.81c-0.99,1.07-1.95,2.16-2.97,3.2c-3.71,1.56-7.67,1.16-11.32-0.35
		c-2.37-1.5-3.54-4.05-4.73-6.45C589.29,501.26,589.08,497.74,591.45,495.44z"/>
	<path fill="#893A3B" stroke="#893A3B" stroke-width="0.3" d="M543.48,496.39c1.44-0.47,3.01-1.39,4.54-0.65
		c0.93,0.95,1.83,1.93,2.74,2.92c-7.43,7.43-11.49,17.33-15.09,27.01c-5.74,15.59-11.59,31.16-16.62,47
		c-6.63,18.09-12.64,36.41-18.5,54.76c-0.12,0.24-0.34,0.72-0.45,0.96c-0.64,1.32-1.34,2.61-2.03,3.91c-2,0.33-3.98,0.71-5.98,0.95
		c-2.68,0.66-5.47-0.22-5.72-3.32l0.55-0.78c11.16-32.19,22.11-64.46,34.3-96.27c1.51-4.08,3.21-8.09,4.7401-12.17
		c-2.75,2.88-5.03,6.17-7.42,9.34c-24.97,33.31-47.32,68.5-68.87,104.09c-0.12,0.18-0.35,0.54-0.46,0.71
		c-0.91,1.4-1.8,2.8-2.68,4.22c-4.55,0.98-9.2,1.43-13.85,1.31c-0.32-1.3-0.62-2.6-0.92-3.9c2.97-3.71,5.12-7.98,7.78-11.9
		c12.85-20.43,25.91-40.72,39.22-60.84c10.36-15.44,20.6-30.98,31.82-45.81c1.27-1.43,2.59-2.82,3.9-4.21
		c5.02-5.52,12.02-8.59,19.12-10.39C536.74,500.81,539.7,497.98,543.48,496.39z"/>
	<path fill="#FF81E5" stroke="#FF81E5" stroke-width="0.3" d="M548.02,495.74c5.34,3.32,10.05,7.57,14.64,11.85
		c1.3701,1.31,2.72,2.64,4.09,3.97c-3.22,2-6.83,4.07-8.36,7.74c-1.44,3.73-1.33,7.81-1.73,11.74
		c-0.74,8.09-1.3799,16.2-2.0099,24.3c-1.57,20.84-1.17,41.74-0.91,62.61c0.1,0.55,0.29,1.65,0.39,2.2
		c0.45,1.48,0.96,2.93,1.39,4.43c1.36,6.27,2.9,12.5,4.37,18.74c0.17,1.2,0.33,2.41,0.48,3.63c17.14-5.07,34.27-10.22,51.38-15.4
		c-0.09-1.22-0.17-2.41-0.2-3.61c0.08-3.61,0.57-7.21,0.54-10.81c-0.1-1.56-0.22-3.1-0.36-4.63l0.63-0.13
		c0.83-13.4,1.48-26.8,2.14-40.21c4.86-0.31,8.12,4.28,10.49,7.9c0.73,5.6-0.33,11.25-0.32,16.87c-0.11,4.47-0.56,8.95-0.23,13.43
		l0.65,1.23c0.23,1.03,0.43,2.0699,0.62,3.1299c-0.42,0.3101-1.28,0.92-1.7,1.23c-0.14,2.67-0.3,5.35-0.39,8.03
		c0,1.89-0.21,4.26,2.31,4.46c2.08,43.15,3.63,86.34,3.49,129.55c-1.14,33.79-6.02,67.31-7.83,101.06
		c-0.5,11.99-0.95,24.08,0.66,36.02c2.69,22.72,7.07,45.51,16.06,66.65c5.47,12.6,12.62,24.78,23.16,33.8
		c2.9301,5.71,5.04,11.89,8.76,17.21c6.43,10.12,15.59,18.79,26.76,23.42c8.56,3.5399,18.07,2.64,27.09,2.14
		c0.32,8.5599,0.55,17.14,0.63,25.72c0.08,5.49-0.22,11.03,0.83,16.47c-9.67,13.4-18.75,27.28-25.88,42.23
		c-1.33,2.8-2.7599,5.5601-4.19,8.3301c-4.53,1.1899-8.54,3.6799-12.73,5.6699c-65.28,31.74-130.59,63.41-195.85,95.1801
		c-1.53,0.85-3.29,0.74-4.89,0.1899c-49.52-15.0199-99.21-29.46-148.69-44.6c2.47-18.1799,5.52-36.27,7.99-54.4399
		c20.18-134.65,40.03-269.34,60.11-404.0001c2.78-19.18,5.82-38.32,8.43-57.52c4.26-8.81,5.89-18.6,9.13-27.79
		c26.23,2.28,52.41,5.19,78.66,7.3c0.06,3.23-0.65,6.41-1.76,9.43c-1.69,4.67-1.05,9.7-1.21,14.56c0.11,10.03-1.09,20.02-0.98,30.05
		c0.16,10.01-1.1,19.96-0.99,29.97c0.16,11.34-1.13,22.65-1.02,34c0.18,10-1.14,19.96-1,29.97c0.13,8.34-0.6,16.64-0.87,24.97
		c-0.13,16.05-1.27,32.08-1.26,48.13c-0.7,9.94-0.91,19.89-0.96,29.86c-0.27,7.6801-1.02,15.34-0.87,23.04
		c0.18,10.68-1.17,21.31-1.01,31.99c0.15,9.7-0.96,19.35-0.99,29.05c-0.07,5.97-0.02,11.95-0.49,17.91
		c-0.85,10.64-0.21,21.34-1.01,31.9799c-0.85,10.66-0.18,21.38-1.03,32.04c-0.75,9.66-0.25,19.37-0.83,29.04
		c-0.88,10.29-0.48,20.64-1.07,30.96c-0.77,13.65-0.41,27.34-1.4,40.98c-0.12,10.3201-0.54,20.63-0.68,30.9501
		c1.2,0,2.41,0.02,3.62,0.0499c0.95-8.96,0.17-17.98,0.94-26.9399c0.79-9.67,0.29-19.37,0.88-29.03c0.91-13.98,0.46-28,1.51-41.97
		c-0.11-14.04,1.1-28.04,1.19-42.0701c1.2-35.35,2.29-70.6899,3.31-106.03c0.8-8.95,0.45-17.94,0.88-26.9
		c0.25-7.66,0.79-15.32,0.76-22.99c-0.09-11.03,1.15-22.02,1.03-33.05c-0.09-7.65,0.67-15.26,0.87-22.9
		c0.12-16.39,1.24-32.74,1.3-49.13c1.12-13.65,0.51-27.36,1.55-41.01c0.57-23.97,1.38-47.93,2.24-71.9c0-6.92,0.13-13.84,0.67-20.74
		c14.53-4.16,29.04-8.43,43.42-13.09c-0.34-1.07-0.66-2.14-0.95-3.21c-0.79-7.41-0.89-14.89-1.94-22.27
		c-0.17-1.19-0.35-2.38-0.51-3.56c-12.96,1.73-25.91,3.52-38.87,5.22c0.11-0.24,0.33-0.72,0.45-0.96c4.6-0.83,9.26-1.23,13.89-1.95
		c-0.2-17.68,0.85-35.49,4.61-52.81c5.03-15.84,10.88-31.41,16.62-47c3.6-9.68,7.66-19.58,15.09-27.01
		C549.85,497.67,548.95,496.69,548.02,495.74 M546.83,514c-2.54,4.19-4.09,8.89-5.25,13.64c-1.41,5.78-3.25,11.45-4.73,17.22
		c-8.0699,25.43-11.67,52.27-9.63,78.91c4.17-0.52,8.36-0.99,12.51-1.72c0.44-24.52,1.9-49.13,2.9-73.54
		C543.99,537.01,544.18,525.32,546.83,514z"/>
	<path fill="#ECE6E1" stroke="#ECE6E1" stroke-width="0.3" d="M611.71,499.63c2.42-3.24,8.16-3.36,10.25,0.3
		c1.8,3.19,1.77,6.99,2.32,10.52c-0.9901,1.84-1.45,4.31-3.51,5.28c-2.67,1.32-5.84,0.86-8.57,0.01c-2.41-0.67-1.99-3.76-2.73-5.63
		C609.46,506.54,609.43,502.6,611.71,499.63z"/>
	<path fill="#C6B9AE" stroke="#C6B9AE" stroke-width="0.3" d="M1148.91,498.56c5.0299-0.41,10.24-0.51,15.12,1.04
		c0.58,0.56,1.1899,1.1,1.84,1.64c3.01,18.17,6.15,36.35,7.92,54.7c2.58,27.3,3.98,54.68,5.98,82.02
		c0.4399,6.25-0.27,12.88,2.41,18.74c5.48,10.91,10.47,22.07,15.98,32.97c4.9299,9.86,7.86,20.53,10.13,31.27
		c0.7,4.05-0.7201,8.05-1.1801,12.05c-3.1899,22.54-5.5,45.26-5.4399,68.04c0.6,25.35-3.4701,50.65-1.5801,76
		c0.79,7.39,4.03,14.41,3.76,21.93c-0.16,6.83-0.03,13.65,0.23,20.48c-1.7999,10.24-12.1,15.37-16.59,24.14
		c-5.42,10.42-7.95,22.03-10.37,33.45c-2.62,13.36-5.24,26.77-6.0599,40.39c-1.6201,5.05-1.0701,10.4-1.3201,15.6201
		c-0.01,4.5299-0.63,9.27,1.3201,13.5299c1.5599,7.63,2.2899,15.4,3.11,23.14c-0.36,6.4401,0.64,12.8401,0.6699,19.28
		c0.12,5.76-0.98,11.47-0.77,17.24l-0.0399,0.3301c-1.8401,4.59-1.25,9.6299-1.12,14.46c0.35,3.7999,0.1899,7.89,2.23,11.29
		c0.0699,0.1399,0.2,0.4299,0.27,0.5699c0.49,1.84,0.87,3.75,1.25,5.64c3.4399,15.38,9.76,30.01,12.2,45.63
		c2.64,15.83,2.14,31.9299,1.98,47.9199c-0.74,22.6901-2.35,45.37-4.96,67.9301h-4.72c3.0399-23.23,4.33-46.66,5.1899-70.0601
		c0.17-14.5599,0.38-29.22-1.78-43.6599c-2.6599-18.25-10.6399-35.1901-13.7699-53.3301c-2.03-10.6599-1.64-21.6399-0.3601-32.37
		c1.5801-19.2699-1.2799-38.5-4.22-57.5c-0.9199-5.8199-0.08-11.6899,0.1801-17.5199c0.5-20.92,4.48-41.5701,9.2-61.8901
		c2.9401-10.66,6.09-21.92,13.86-30.18c3.79-4.22,8.4701-8.09,10.0901-13.76c1.8899-5.78-0.1901-11.8,0.49-17.68
		c1.1-8.22-2.5701-15.94-3.4501-23.98c-1.99-14.31,0.0801-28.71,0.25-43.06c1.2201-11.62,0.9501-23.33,0.9401-35
		c0.75-24.1,2.5699-48.2,6.45-72.02c0.52-2.97,0.6801-6.06-0.12-8.99c-2.03-8.01-4.0499-16.09-7.41-23.67
		c-5.5399-11.46-10.9099-23.01-16.6399-34.38c-1.2401-2.56-2.66-5.11-3.0801-7.95c-1.4-22.01-2.7-44.03-4.34-66.03
		c-1.66-25.8199-4.29-51.62-9.28-77.03c-0.62-2.07-0.6899-4.58-2.2999-6.14c-2.4701-0.84-5.1201-0.86-7.67-1.16
		c0.74,8.24,3.4,16.16,4.88,24.29c6.4,28.02,8.7,56.78,10.25,85.41c0.97,9.86,0.72,19.78,1.2999,29.66
		c0.66,8.28-2.96,16.03-6.36,23.34c-8.35,17.86-22.36,32.93-39.36,42.87c-15.1,8.44-32.14,12.53-49.02,15.61
		c-21.2699,3.57-42.8199,5.25-64.36,5.77c-23.97,1.3799-48.03-0.71-71.75-4.27c-15.36-2.51-30.71-5.65-45.3199-11.12
		c-26.14-10.46-50.23-26.83-68.06-48.77c-3.4-4.48-7.5-8.9-8.21-14.72c-3.26-18.77-8.42-37.12-13.82-55.36
		c-6.94-24.14-14.98-47.97-21.76-72.13c-1.05-3.0099-4.54-1.17-6.76-1.03c1.5,10.05,5.59,19.48,8.62,29.13
		c10.89,31.69,19.41,64.13,27.27,96.69c0.56,2.54,1.22,5.35-0.21,7.75c-8.31,16.03-16.22,32.3-22.78,49.13
		c-4.33,11.31-8.5,22.92-9.15,35.12c-0.45,9.76-2.23,19.38-3.79,29c-2.5,15.2-2.65,30.97,1.14,45.97
		c5.9,23.57,17.17,45.42,22.91,69.03c3.02,16.48,3.96,33.29,3.58,50.03c0.11,7.33-1.27,14.55-1.42,21.87
		c-1.94,6.47-4.9901,12.55-7.56,18.78c-4.88,11.08-10.1,22.09-16.83,32.18c-4.82,7.42-11.38,13.59-15.56,21.4401
		c-5.69,9.37-6.46,20.73-11.72,30.2999c-3.18,6.17-8.12,11.1-13.03,15.9c-10.86,12.1799-19.89,25.88-27.78,40.13
		c-8.47,15.74-15.63,32.24-20.44,49.48c-6.27,22.42-8.77,45.62-12.7599,68.5c-3.98,23.0601-10.75,45.5699-19.14,67.38h-4.87
		c4.99-12.8,9.32-25.86,13.01-39.09c6.47-22.8401,9-46.49,13.11-69.8c3.12-18.58,8.03-36.88,15.32-54.26
		c0.78-1.97,1.6-3.9199,2.5099-5.8099c1.4301-2.77,2.86-5.53,4.19-8.3301c7.13-14.95,16.21-28.83,25.88-42.23
		c1.2-1.64,2.52-3.1799,3.82-4.73c4.61-6.15,11.23-10.59,15.02-17.37c4.44-7.15,5.9-15.5601,8.79-23.34
		c3.87-6.4301,7.09-13.28,11.98-19.0601c14.06-16.01,22.23-36,30.5-55.37c1.74-3.63,1.94-7.67,2.25-11.61
		c2.3-18.27,1.2-36.78-0.94-55.01c-0.97-9.81-4.08-19.24-7.42-28.46c-4.9-14.09-10.67-27.88-14.92-42.2
		c-4.42-13.94-5.83-28.77-4.57-43.33c0.51-8.77,2.42-17.37,3.66-26.05c1.74-10.62,1.23-21.57,4.5-31.93
		c6.82-23.14,17.45-44.93,28.49-66.31c2.5-3.9901-0.01-8.52-0.82-12.63c-8.59-36.13-18.72-71.94-31.41-106.85
		c-0.95-4.61-2.37-9.1-3.78-13.58c-0.35-1.07-0.68-2.12-1.02-3.17c0.7-0.92,1.12-2.16,2.24-2.66c4.47-0.77,9.07-0.65,13.55,0.14
		c-0.23,2.0099-0.32,4.07,0.27,6.05c1.32,5.34,2.8,10.65,4.4,15.92c5.64,17.52,10.93,35.14,16.21,52.77
		c4.96,16.98,10.08,33.97,13.3,51.39c1.06,4.74,1.26,9.94,4.3,13.97c3.05,4.25,6.31,8.35,9.78,12.27
		c17.91,19.21,40.54,33.9,65.21,42.85c13.64,4.55,27.75,7.6,41.97,9.69c10.9,1.62,21.86,3.19,32.89,3.52
		c11.75,0.48,23.5,0.29,35.25,0.28c9.73,0.26,19.3701-1.33,29.11-1.27c19.26-1.12,38.51-3.84,57.1799-8.81
		c15.02-3.9901,29.66-10.46,41.36-20.89c13.4801-11.72,23.4601-27.34,28.77-44.38c1.39-4.98,0.6001-10.2,0.62-15.29
		c-0.6499-13.7-1.3199-27.39-2.3199-41.07c-1.96-23.75-4.05-47.72-10.41-70.76c-1.16-7.36-2.73-14.71-5.12-21.77
		C1148.4301,500.46,1148.65,499.5,1148.91,498.56z"/>
	<path fill="#F1D1BC" stroke="#F1D1BC" stroke-width="0.3" d="M584.47,500.86c0.46,1.86,0.79,3.75,1.14,5.65
		c2.65,1.87,5.49,3.55,8.71,4.21c3.65,1.51,7.61,1.91,11.32,0.35c1.79,2.64,3.94,5.37,7.21,6.17c5.09,1.14,10.84-0.1,14.64-3.78
		c2.36-2.28,3.38-5.48,4.65-8.42c3.1,1.57,6.2,3.66,9.81,3.63c4.92,0.16,10.03-0.96,14.8,0.78c9.72,3.43,17.06,11.03,26.12,15.69
		c3.19,1.59,6.55,4.02,6.65,7.97c0.48,8.69,4.32,16.61,6.3,24.97c2.24,8.82,3.92,17.8,4.68,26.87c1,18.33-2.28,36.89,1.72,55.01
		c7.6801,36.72,16.19,73.28,26.29,109.41c12.18,44.18,28.39,87.18,47.34,128.89c1.97,4.11,3.08,8.56,3.76,13.06
		c2.93,17.11,2.65,34.61,0.78,51.81c1.52-0.46,3.86-0.44,4.1-2.5c1.03-5.14,0.81-10.43,0.99-15.65c0.01-9.65,0.29-19.37-1.18-28.94
		c-0.95-6.11-1.55-12.42-4.22-18.08c-14.81-32.6-28.05-65.94-38.94-100.06c-14.41-45.9301-25.43-92.85-35.28-139.95
		c-2.96-14.48-1.16-29.33-1.45-43.98c0.65-17.78-3.72-35.3-9.37-52.03c-0.74-2.62-0.98-5.34-1.32-8.02c0.57-0.2,1.7-0.6,2.27-0.79
		c2.78-0.79,5.59-1.46,8.4-2.12c21.46-5.41,43.46-8.06,65.28-11.53c0.34,1.05,0.67,2.1,1.02,3.17c-0.29,0.6-0.87,1.79-1.16,2.38
		c1.34,3.85,2.31,7.96,4.9399,11.2c12.69,34.91,22.82,70.72,31.41,106.85c0.81,4.11,3.32,8.64,0.82,12.63
		c-11.04,21.38-21.67,43.17-28.49,66.31c-3.27,10.36-2.76,21.31-4.5,31.93c-1.2401,8.68-3.15,17.28-3.66,26.05
		c-1.26,14.56,0.15,29.39,4.57,43.33c4.25,14.32,10.02,28.11,14.92,42.2c3.34,9.22,6.45,18.65,7.42,28.46
		c2.14,18.23,3.24,36.74,0.94,55.01c-0.31,3.94-0.51,7.98-2.25,11.61c-8.27,19.37-16.44,39.36-30.5,55.37
		c-4.89,5.78-8.11,12.63-11.98,19.0601l0.71-2c-8.29,2.09-16.71,3.63-25.19,4.7c-1.54,0.1801-3.08,0.37-4.61,0.55
		c-9.02,0.5-18.53,1.3999-27.09-2.14c-11.17-4.63-20.33-13.3-26.76-23.42c-3.72-5.32-5.83-11.5-8.76-17.21
		c-10.54-9.02-17.6899-21.2-23.16-33.8c-8.99-21.14-13.37-43.93-16.06-66.65c-1.61-11.94-1.16-24.03-0.66-36.02
		c1.81-33.75,6.69-67.27,7.83-101.06c0.14-43.21-1.41-86.4-3.49-129.55c0.08-1.56,0.16-3.11,0.24-4.65
		c0.03-3.04-0.16-6.06-0.46-9.07c-0.19-1.06-0.39-2.1-0.62-3.1299c-0.32-4.89-0.4901-9.78-0.42-14.66
		c-0.01-5.62,1.05-11.27,0.32-16.87c-2.37-3.62-5.63-8.21-10.49-7.9c-1.56-0.39-3.02-1.09-4.28-2.06c-2.2-2.8-5.7599-3.34-9.09-3.65
		c-7.36-1.24-14.7-2.57-22.12-3.34c-8.55-0.92-17.03-3.15-24.36-7.77c0.63-8.1,1.27-16.21,2.0099-24.3
		c0.4-3.93,0.29-8.0099,1.73-11.74c1.53-3.67,5.14-5.74,8.36-7.74c-1.37-1.33-2.72-2.66-4.09-3.97c0.8,0.2,2.4,0.6,3.21,0.8
		c5,1.71,10.65,3.19,15.8,1.2C585.05,508.16,584.16,503.79,584.47,500.86z"/>
	<path fill="#E8DCD3" stroke="#E8DCD3" stroke-width="0.3" d="M1148.23,501.43c2.39,7.06,3.96,14.41,5.12,21.77
		c-2.24-3.57-2.6699-7.83-3.86-11.78C1148.66,508.17,1147.16,504.81,1148.23,501.43z"/>
	<path fill="#F6F1ED" stroke="#F6F1ED" stroke-width="0.3" d="M1153.39,502.64c2.5499,0.3,5.2,0.32,7.67,1.16
		c1.61,1.56,1.6799,4.07,2.2999,6.14c4.99,25.41,7.62,51.21,9.28,77.03c1.64,22,2.9399,44.02,4.34,66.03
		c0.42,2.84,1.84,5.39,3.0801,7.95c5.73,11.37,11.1,22.92,16.6399,34.38c3.3601,7.58,5.38,15.66,7.41,23.67
		c0.8,2.93,0.64,6.02,0.12,8.99c-3.88,23.82-5.7,47.92-6.45,72.02c0.01,11.67,0.28,23.38-0.9401,35
		c-0.1699,14.35-2.24,28.75-0.25,43.06c0.88,8.04,4.55,15.76,3.4501,23.98c-0.6801,5.88,1.3999,11.9-0.49,17.68
		c-1.62,5.67-6.3,9.54-10.0901,13.76c-7.77,8.26-10.9199,19.52-13.86,30.18c-4.72,20.32-8.7,40.97-9.2,61.8901
		c-0.26,5.83-1.1,11.7-0.1801,17.5199c2.9401,19,5.8,38.2301,4.22,57.5c-1.2799,10.7301-1.6699,21.7101,0.3601,32.37
		c3.13,18.14,11.11,35.0801,13.7699,53.3301c2.16,14.4399,1.9501,29.1,1.78,43.6599c-0.86,23.4-2.15,46.8301-5.1899,70.0601H656.39
		c8.39-21.8101,15.16-44.3199,19.14-67.38c3.99-22.88,6.49-46.08,12.7599-68.5c4.81-17.24,11.97-33.74,20.44-49.48
		c7.89-14.25,16.92-27.9501,27.78-40.13c4.91-4.8,9.85-9.73,13.03-15.9c5.26-9.5699,6.03-20.9299,11.72-30.2999
		c4.18-7.85,10.74-14.0201,15.56-21.4401c6.73-10.09,11.95-21.1,16.83-32.18c2.5699-6.23,5.62-12.31,7.56-18.78
		c0.15-7.3199,1.53-14.54,1.42-21.87c0.38-16.74-0.56-33.55-3.58-50.03c-5.74-23.61-17.01-45.46-22.91-69.03
		c-3.79-15-3.64-30.77-1.14-45.97c1.56-9.62,3.34-19.24,3.79-29c0.65-12.2,4.82-23.81,9.15-35.12c6.56-16.83,14.47-33.1,22.78-49.13
		c1.4301-2.4,0.77-5.21,0.21-7.75c-7.86-32.56-16.38-65-27.27-96.69c-3.03-9.65-7.12-19.08-8.62-29.13
		c2.22-0.14,5.71-1.98,6.76,1.03c6.78,24.16,14.82,47.9901,21.76,72.13c5.4,18.2401,10.56,36.59,13.82,55.36
		c0.71,5.82,4.81,10.24,8.21,14.72c17.83,21.94,41.92,38.31,68.06,48.77c14.61,5.47,29.96,8.61,45.3199,11.12
		c23.72,3.56,47.78,5.65,71.75,4.27c21.54-0.52,43.0901-2.2,64.36-5.77c16.88-3.08,33.92-7.17,49.02-15.61
		c17-9.94,31.01-25.01,39.36-42.87c3.4-7.31,7.02-15.06,6.36-23.34c-0.58-9.88-0.33-19.8-1.2999-29.66
		c-1.55-28.63-3.85-57.39-10.25-85.41C1156.79,518.8,1154.13,510.88,1153.39,502.64z"/>
	<path fill="#F1D1BC" stroke="#F1D1BC" stroke-width="0.3" d="M546.83,514c-2.65,11.32-2.84,23.01-4.2,34.51
		c-1.9-1.27-3.85-2.45-5.78-3.65c1.48-5.77,3.32-11.44,4.73-17.22C542.74,522.89,544.29,518.19,546.83,514z"/>
	<path fill="#F1D1BC" stroke="#F1D1BC" stroke-width="0.3" d="M518.54,530.05c2.39-3.17,4.67-6.46,7.42-9.34
		c-1.53,4.08-3.23,8.09-4.7401,12.17C520.32,531.93,519.43,530.99,518.54,530.05z"/>
	<path fill="#E8DED6" stroke="#E8DED6" stroke-width="0.3" d="M769.53,525.03c0.29-0.59,0.87-1.78,1.16-2.38
		c1.41,4.48,2.83,8.97,3.78,13.58C771.84,532.99,770.87,528.88,769.53,525.03z"/>
	<path fill="#ECE6E1" stroke="#ECE6E1" stroke-width="0.3" d="M1602.89,550.88c25.99-2.02,52.11-1.81,78.1,0.13
		c1.65,0.26,3.65-0.17,5.08,0.98c0.9401,1.39,1.13,3.17,1.77,4.74c-1.5599-0.91-3.2899,0.01-4.84,0.35
		c-11.75,3.02-23.38,6.79-35.35,8.72c13.01-3.72,26.2899-6.51,39.22-10.55c-0.73-1.33-0.85-3.49-2.83-3.34
		c-22.6001-1.94-45.3301-2.14-67.98-1.25c-21.3401,1-42.52,3.88-63.7301,6.27l1.14-0.58
		C1569.88,554.04,1586.37,552.27,1602.89,550.88z"/>
	<path fill="#56AFC1" stroke="#56AFC1" stroke-width="0.3" d="M1552.33,556.93c21.2101-2.39,42.39-5.27,63.7301-6.27
		c22.6499-0.89,45.3799-0.69,67.98,1.25c1.98-0.15,2.1,2.01,2.83,3.34c-12.9301,4.04-26.21,6.83-39.22,10.55
		c-8.87,1.95-17.66,4.35-26.4,6.77c-0.13,0.31-0.39,0.92-0.52,1.22c4.74,4.83,11.66,6.63,17.59,9.63
		c0.17,1.45,0.3501,2.91,0.67,4.36c-0.62-0.07-1.87-0.2-2.49-0.27c-9.16-0.69-18.35,0.08-27.49,0.66
		c-6.99,0.09-13.98,0.09-20.9301,0.8c-6.14,0.63-12.3199-0.1-18.4299,0.65c2.3199,0.74,4.76,0.9,7.21,0.96
		c-4.97-0.02-9.92-0.33-14.87-0.33c-5.03-0.12-9.9399,1.36-14.98,1.1c-7.1801,0.14-14.4-0.38-21.5601,0.37
		c1.0901-1.14,1.67-2.5699,1.79-4.15c12.58-1.03,25.21-0.79,37.79-1.76c21.33-0.49,42.62-1.84,63.95-2.41
		c-6.1-3.25-12.66-5.63-18.51-9.3c0.02-0.5699,0.0601-1.71,0.0801-2.28c5.83-2.59,12.2899-3.4,18.38-5.26
		c14.3999-3.79,28.85-7.41,43.21-11.34c-10.97-1.56-22.11-0.74-33.15-1.0099c-26.12-0.44-52.12,2.47-78,5.63
		c-11.36,1.47-22.75,2.8-34.01,4.86c0.8301-0.34,1.67-0.68,2.53-1.04c0.25-1.15,0.51-2.3,0.8-3.45
		C1537.63,559.02,1545.0699,558.53,1552.33,556.93z"/>
	<path fill="#F9E0E3" stroke="#F9E0E3" stroke-width="0.3" d="M1560.99,559.84c25.88-3.16,51.88-6.07,78-5.63
		c11.04,0.27,22.1801-0.55,33.15,1.0099c-14.36,3.9301-28.8101,7.55-43.21,11.34c-6.0901,1.86-12.55,2.67-18.38,5.26
		c-0.02,0.57-0.0601,1.71-0.0801,2.28c5.85,3.67,12.41,6.05,18.51,9.3c-21.33,0.5699-42.62,1.92-63.95,2.41
		c-12.5801,0.97-25.2101,0.73-37.79,1.76c-4-7.09-7.49-14.46-11.46-21.57c2.77-0.28,5.5699-0.49,8.36-0.81
		c0.71-0.12,2.13-0.37,2.84-0.49C1538.24,562.64,1549.63,561.31,1560.99,559.84z"/>
	<path fill="#459EB0" stroke="#459EB0" stroke-width="0.3" d="M1683,557.08c1.55-0.34,3.28-1.26,4.84-0.35
		c60.12,156.67,120.26,313.34,180.39,470.01c1.41,3.97,3.59,7.85,3.52,12.2c0.25,20.6901,0.29,41.39,0.89,62.0801
		c0.08,2.83,0.37,6.4399-2.6,8c-23.87,15.52-47.86,30.86-71.76,46.33c-1.91,1.24-3.98,2.47-6.3201,2.28
		c-11.98-0.14-23.9399-0.75-35.9199-0.64c-26.03-0.33-52.0601-1.09-78.1001-1.29c-27.3199-0.7899-54.6499-0.7-81.96-1.5399
		c-12.1799-0.38-24.37,0.0599-36.53-0.66c-4.72-1.36-9.6699-0.54-14.48-0.83c-13.0399-0.42-26.08-0.17-39.11-0.5901
		c0.02-1.3199,0.0701-2.63,0.13-3.9199c17.01,0.39,34.02,0.5699,51.03,0.63c10.96,0.64,21.96,0.5599,32.9399,0.83
		c27.67-0.05,55.3201,1.36,83,1.14c11.67,0.53,23.3501,0.6799,35.04,0.87c28.33-0.0699,56.65,1.51,84.98,1.05
		c2.36-0.4301,4.21-2.1801,6.24-3.38c18.25-11.8301,36.5601-23.5801,54.8401-35.37c4.3999-3.2001,9.49-5.5,13.5599-9.1101
		c0.38-21.2599-0.24-42.5499-0.4399-63.8199c0.08-6.46-3.3-12.14-5.3-18.08C1802.21,867.66,1742.77,712.31,1683,557.08z"/>
	<path fill="#57ACBD" stroke="#57ACBD" stroke-width="0.3" d="M1515.0601,564.72c2.96,0.73,6.0299,0.78,9.08,0.47
		c-2.79,0.32-5.59,0.53-8.36,0.81C1515.6,565.68,1515.24,565.04,1515.0601,564.72z"/>
	<path fill="#56AFC1" stroke="#56AFC1" stroke-width="0.3" d="M1472.9399,569.01c9.2001-1.26,18.3201-3.53,27.6201-3.9
		c0.46,1.01,0.9399,2.03,1.4399,3.05c-23.15,3.4901-46.25,7.3701-69.3,11.54c-0.8199,2.91-1.62,5.83-2.3899,8.75
		c3.0099,1.45,6.2699,2.48,9.6599,2.32c13.7101-0.07,27.38-1.3,41.0901-1.42c10.1799-0.86,20.4199-0.46,30.59-1.47
		c0.7,1.53,1.4399,3.06,2.1899,4.6c-7.27,0.07-14.6-0.72-21.7999,0.52c-6.4601,1.06-13.01-0.14-19.49,0.42
		c-3.5,0.52-6.99,1.32-10.54,1.09c-6.6901-0.32-13.39,0.02-20.0601-0.45c-5.13-1.56-10.1499-3.45-15.21-5.22
		c0.92-4.52,1.46-9.32,4.1801-13.21c1.39-0.15,2.85-0.25,4.2799-0.44C1447.84,573.61,1460.33,570.92,1472.9399,569.01z"/>
	<path fill="#FF81E5" stroke="#FF81E5" stroke-width="0.3" d="M601.13,566.45c3.33,0.31,6.89,0.85,9.09,3.65
		c-8.99,11.82-11.4,26.83-14.58,40.95c-0.41,1.66-0.58,3.37-0.6,5.09c-4.06,0.15-8.11,0.49-12.17,0.4
		c1.66-7.52,3.02-15.1,4.63-22.62c2-9.6,5.43-18.86,9.63-27.71C598.45,566.28,599.79,566.34,601.13,566.45z"/>
	<path fill="#F9E0E3" stroke="#F9E0E3" stroke-width="0.3" d="M1432.7,579.7c23.05-4.17,46.15-8.05,69.3-11.54
		c3.26,6.55,6.7,13.01,9.65,19.72c-10.17,1.01-20.41,0.61-30.59,1.47c-13.7101,0.12-27.38,1.35-41.0901,1.42
		c-3.39,0.16-6.65-0.87-9.6599-2.32C1431.08,585.53,1431.88,582.61,1432.7,579.7z"/>
	<path fill="#BE43A5" stroke="#BE43A5" stroke-width="0.3" d="M1382.22,575.03c4.39,0.92,8.5801,2.58,12.91,3.78
		c2.8,1,5.6,2.02,8.42,3.01c-0.4601,1.08-0.91,2.18-1.3401,3.28c-5.73-1.8-11.4299-3.72-17.21-5.34
		C1382.6801,579.19,1381.5699,577.42,1382.22,575.03z"/>
	<path fill="#C3B4D7" stroke="#C3B4D7" stroke-width="0.3" d="M1427.42,581.07c0.62-2.12,0.84-4.95,3.5-5.44
		c-2.7201,3.89-3.26,8.69-4.1801,13.21c-0.3-0.1-0.9-0.31-1.2-0.42C1426.1801,585.97,1426.79,583.52,1427.42,581.07z"/>
	<path fill="#F9E0E3" stroke="#F9E0E3" stroke-width="0.3" d="M1382.3199,579.98c0.67-0.06,2.01-0.16,2.6801-0.22
		c5.78,1.62,11.48,3.54,17.21,5.34c-2.12,5.91-5.38,11.32-7.61,17.17c-3.5499-0.73-7.12-1.44-10.5499-2.6
		c-0.9601-0.55-1.9-1.12-2.8101-1.71C1382.89,592.13,1381.9301,585.96,1382.3199,579.98z"/>
	<path fill="#BE44A5" stroke="#BE44A5" stroke-width="0.3" d="M1413.42,585.08c4.0599,1.01,8.1499,1.97,12.12,3.34
		c0.2999,0.11,0.8999,0.32,1.2,0.42c5.0601,1.77,10.08,3.66,15.21,5.22c7.2301,1.27,14.12,3.84,21.12,5.98
		c12.03,3.84,24.0801,7.64,36.12,11.45c-5.5199,0.31-11.09,0.4-16.47-1.06c-10.2899-2.88-20.39-6.37-30.58-9.55
		c-13.65-2.85-26.5701-8.25-39.77-12.63C1412.72,587.19,1413.0699,586.14,1413.42,585.08z"/>
	<path fill="#57ACBD" stroke="#57ACBD" stroke-width="0.3" d="M1636.5,587.51c0.62,0.07,1.87,0.2,2.49,0.27
		c2.09,3.0699,2.62,6.81,3.72,10.29c49.36,168.68,98.65,337.38,148.01,506.07c1.24,4.99,3.4401,9.79,3.86,14.96
		c-0.2699,2.16-3.2,1.61-3.5199-0.15c-1.77-4.49-2.6801-9.25-4.17-13.8199c-49.47-169.17-98.97-338.34-148.41-507.52
		C1637.42,594.34,1636.38,590.99,1636.5,587.51z"/>
	<path fill="#F9E0E3" stroke="#F9E0E3" stroke-width="0.3" d="M1405.1899,605.39c2.6001-5.63,4.65-11.48,7.1801-17.14
		c13.2,4.38,26.12,9.78,39.77,12.63c10.1899,3.18,20.29,6.67,30.58,9.55c-2.45,1.04-5.12,1.1-7.6899,0.7
		c-6.9501-1.08-14.01-0.36-20.9501-1.38c-16.3099-0.57-32.5599-2.1-48.87-2.65C1405.21,606.67,1405.1899,605.82,1405.1899,605.39z"
		/>
	<path fill="#302013" stroke="#302013" stroke-width="0.3" d="M624.44,610.36c-0.33-4.48,0.12-8.96,0.23-13.43
		c-0.07,4.88,0.1,9.77,0.42,14.66L624.44,610.36z"/>
	<path fill="#C545AB" stroke="#C545AB" stroke-width="0.3" d="M1381.22,600.21c0.7101-0.13,2.13-0.4,2.8301-0.54
		c3.4299,1.16,7,1.87,10.5499,2.6c-0.48,1.29-1.0599,2.54-1.58,3.81c-3.98-0.65-8.02-1.11-11.8-2.5
		C1380.35,602.45,1380.36,601.33,1381.22,600.21z"/>
	<path fill="#C545AB" stroke="#C545AB" stroke-width="0.3" d="M1399.4,611.76c1.98-2.49,3.88-5.03,5.74-7.61l0.0499,1.24
		c0,0.43,0.02,1.28,0.02,1.71c16.3101,0.55,32.5601,2.08,48.87,2.65c6.9401,1.02,14,0.3,20.9501,1.38
		c2.5699,0.4,5.24,0.34,7.6899-0.7c5.38,1.46,10.9501,1.37,16.47,1.06c0.6201,0.2,1.8401,0.58,2.4601,0.78
		c-0.2001,11.55-0.05,23.12,0.59,34.67c0.4301,14.32,0.1801,28.67,1,42.99c0.47,23.7,0.52,47.43,2.3201,71.08
		c3.9199,63.58,4.7,127.33,3.24,191.02c-0.2301,24.65-0.14,49.3199-1.03,73.97c-0.03,29-1.2001,57.97-1.4501,86.96
		c-0.6799,13.2201-0.7899,26.4501-0.7899,39.6901c-0.66,24.09-1.15,48.1899-1.91,72.28c-0.01,2.4099-2.36,3.95-4.6,3.8199
		c-40.3301,1.38-80.64,3.11-120.97,4.48c-4.12,0.0801-8.54,1.17-12.3601-0.9199c-46.83-21.8-93.6499-43.63-140.48-65.4301
		c-6.52-3.21-13.3199-5.87-19.6599-9.4301c-9.67-6.25-19.2301-12.6599-28.89-18.9299c-0.38-1.89-0.76-3.8-1.25-5.64
		c6.4,2.8,11.83,7.3099,17.75,10.97c6.39,3.9601,12.2999,8.74,19.14,11.9501c51.7999,24.1399,103.63,48.25,155.4299,72.4099
		c10.65,1.4301,21.55-0.24,32.29-0.48c14.7,0,29.34-1.33,44.04-1.39c10.9299-1.0699,21.9399-0.4199,32.8799-1.47
		c7.3101-0.41,14.67-0.05,21.9601-0.99c0.9-11.28,0.6699-22.61,0.9399-33.91c0.48-8.65,0.7201-17.3099,0.8401-25.97
		c-0.0801-14.6899,1.0099-29.34,0.99-44.03c-0.1001-13,0.7699-25.97,0.9199-38.96c0.04-25.6901,1.3201-51.35,1.17-77.05
		c1.28-53.95,1.17-107.94,0.87-161.91c-0.79-23.36-1.22-46.74-2.89-70.06c-0.28-13.69-2.24-27.31-2.05-41.01
		c-0.0599-11-0.36-21.99-0.8999-32.97c-0.1001-14.34-0.27-28.68-0.99-43.01c-0.12-11.33-0.2301-22.67-0.5701-33.99
		c-0.13-1.81-0.01-4.71-2.6-4.4c-30.1-1.62-60.17-3.79-90.27-5.34c-0.42,1.04-0.79,2.09-1.14,3.15c-0.97,0.1-1.9099,0.22-2.84,0.34
		C1400.13,614.01,1399.64,612.51,1399.4,611.76z"/>
	<path opacity="0.82" fill="#CF73B6" stroke="#CF73B6" stroke-width="0.3" enable-background="new    " d="M1379.1,618.14
		c0.02-3.65-0.72-7.47,0.87-10.92C1380.11,610.88,1380.05,614.58,1379.1,618.14z"/>
	<path fill="#D950BD" stroke="#D950BD" stroke-width="0.3" d="M595.04,616.14c0.02-1.72,0.19-3.43,0.6-5.09l-0.32,1.96
		c0.61,0.51,1.23,1.03,1.87,1.53c4.82-0.81,9.7-1.29,14.54-2.04c0.14,1.53,0.26,3.07,0.36,4.63c-18.86,2.4-37.71,5.01-56.57,7.45
		c-0.43-1.5-0.94-2.95-1.39-4.43c9.59-1.1,19.12-2.7401,28.74-3.61C586.93,616.63,590.98,616.29,595.04,616.14z"/>
	<path fill="#C79B25" stroke="#C79B25" stroke-width="0.3" d="M228.89,614.76c0.53-1.12,0.98-2.4,2.07-3.1
		c1.6-0.28,3.13,0.4,4.67,0.7401c5.03,1.47,10.27,1.9,15.43,2.66c-1.2,0.66-2.41,1.33-3.6,2.02c4.2,1.97,8.64,3.35,13.15,4.42
		c18.56,5.45,36.8,11.9,55.27,17.61c4.75,1.58,10.02,2.37,13.92,5.74c-0.24,3.39-0.19,6.81,0.28,10.19
		c0.85,5.54,0.25,11.22,1.56,16.71c-0.83,0.59-1.67,1.19-2.49,1.79c-2.26-4.16-1.24-9.03-1.99-13.54
		c-0.75-4.48,0.02-9.22-1.55-13.53c-30.17-10.02-60.5-19.67-90.77-29.42c-1.99-1.01-2.41,1.6-3.11,2.81
		C174.33,760.03,116.81,900.14,59.38,1040.3c-1.54,3.85-3.59,7.5699-4.38,11.6899c2.68,2.54,6.22,3.9,9.32,5.85
		c44.15,25.8,88.4,51.4301,132.55,77.2201c3.5,1.3999,7.44,0.4099,11.12,0.59c26.34-1.23,52.68-2.29,79.03-3.4
		c8.96-0.8101,17.98-0.34,26.94-1.26c7.81-0.75,15.76,0.36,23.47-1.38c20.05-136.24,40.4-272.43,60.56-408.65
		c2.46-17.16,5.25-34.27,7.49-51.46c-22.11,0.52-44.16,2.83-66.26,3.8c-1.77-0.22-3.53-0.49-5.29-0.74
		c0.72-0.98,1.44-1.97,2.19-2.92c21.9-1.01,43.75-2.96,65.64-3.94c2.26,0.17,4.51,0.44,6.76,0.69c0.45,1.7,0.91,3.4,1.32,5.13
		c-2.61,19.2-5.65,38.34-8.43,57.52C381.33,863.7,361.48,998.39,341.3,1133.04c-1.16,0.5699-2.31,1.1799-3.46,1.7899
		c-0.49,0.63-1,1.27-1.51,1.91c-0.17-0.5-0.5-1.5-0.66-2c-45.85,1.88-91.71,4.0701-137.56,5.72c-7.38-2.95-13.91-7.87-20.95-11.6
		c-40.86-23.79-81.67-47.67-122.6-71.34c-2.79-1.3301-6.41-3.9301-4.15-7.41C109.88,904.99,169.42,759.89,228.89,614.76z"/>
	<path fill="#CF4CB4" stroke="#CF4CB4" stroke-width="0.3" d="M1398.47,636.01c0.5901-8.07-0.51-16.27,0.9301-24.25
		c0.24,0.75,0.73,2.25,0.98,3c0.9301-0.12,1.87-0.24,2.84-0.34c-1.3099,12.49-0.53,25.1-1.4299,37.62
		c-1.78,60.66-3.5801,121.32-5.4601,181.98c-0.0699,13.99-1.2,27.96-1.1,41.96c-0.6699,12.33-0.91,24.68-1.09,37.03
		c-0.98,13.99-0.59,28.02-1.4301,42.02c-0.71,25.64-1.4299,51.27-2.3199,76.9099c-0.0601,15.02-1.23,30.01-1.16,45.03
		c-0.51,11.3401-1.01,22.67-1.01,34.03c-0.6,10.99-0.89,22-1.0499,33.01c-1.1801,11.98-0.39,24.04-1.2101,36.02
		c0.3401,2.39-2.1699,2.03-3.73,2.0499c-0.2-7.0599,0.3301-14.1,0.4301-21.14c-0.02-14.33,1.25-28.6299,1.12-42.97
		c0.98-15.3199,0.6699-30.6899,1.5699-46.01c0.52-9.98,0.1-19.99,0.8201-29.95c0.7-12.14,0.2999-24.3,1.24-36.42
		c0.2999-12.51,0.3099-25.01,1.13-37.5c-0.0901-16.7,1.3199-33.35,1.22-50.06c0.6799-12.34,0.9-24.71,1.12-37.0601
		c1.01-14.24,0.48-28.52,1.52-42.75c0.5499-25.75,1.4-51.49,2.25-77.23c-0.04-14.32,1.1899-28.6,1.11-42.92
		c0.59-12.03,0.97-24.07,1.0599-36.11C1397.84,666.66,1397.4301,651.31,1398.47,636.01z"/>
	<path fill="#C69D2F" stroke="#C69D2F" stroke-width="0.3" d="M251.06,615.06c54.64,7.72,109.3,15.32,163.94,23.07
		c1.32,0.38,2.62,0.85,3.93,1.32c0.05,0.94,0.15,2.81,0.2,3.74l-0.16,0.54c-3.24,9.19-4.87,18.98-9.13,27.79
		c-0.41-1.73-0.87-3.43-1.32-5.13c-2.25-0.25-4.5-0.52-6.76-0.69c2.07-0.21,4.11-0.55,6.17-0.84c1.83-7.29,4.66-14.35,6.01-21.74
		c-2.41-1.49-5.5-1.19-8.2-1.72c-42.95-5.9901-85.89-12.04-128.83-18.08c-5.43-0.61-10.78-2.25-16.3-1.82
		c-4.51-1.07-8.95-2.45-13.15-4.42C248.65,616.39,249.86,615.72,251.06,615.06z"/>
	<path fill="#F6D2DD" stroke="#F6D2DD" stroke-width="0.3" d="M624.01,615.95c0.42-0.31,1.28-0.92,1.7-1.23
		c0.3,3.01,0.49,6.03,0.46,9.07c-0.64,0.04-1.91,0.14-2.55,0.19C623.71,621.3,623.87,618.62,624.01,615.95z"/>
	<path fill="#FFD050" stroke="#FFD050" stroke-width="0.3" d="M231.73,619.86c0.7-1.21,1.12-3.82,3.11-2.81
		c30.27,9.75,60.6,19.4,90.77,29.42c1.57,4.3101,0.8,9.05,1.55,13.53c0.75,4.51-0.27,9.38,1.99,13.54c0.53,1.19,0.57,2.5,0.19,3.76
		c-40.21,143.19-80.35,286.41-120.56,429.6c-0.6,1.6799-1.04,5.62,1.85,4.64c2.45-1.9301,2.36-5.6901,3.39-8.48
		C254.11,960.1,294.26,817.15,334.33,674.18c1.62-0.33,3.25-0.66,4.89-0.88c22.1-0.97,44.15-3.28,66.26-3.8
		c-2.24,17.19-5.03,34.3-7.49,51.46c-20.16,136.22-40.51,272.41-60.56,408.65c-7.71,1.74-15.66,0.63-23.47,1.38
		c-8.96,0.92-17.98,0.45-26.94,1.26c-26.35,1.11-52.69,2.17-79.03,3.4c-3.68-0.1801-7.62,0.8099-11.12-0.59
		c-44.15-25.79-88.4-51.42-132.55-77.2201c-3.1-1.95-6.64-3.3099-9.32-5.85c0.79-4.12,2.84-7.84,4.38-11.6899
		C116.81,900.14,174.33,760.03,231.73,619.86z"/>
	<path fill="#F9E0E3" stroke="#F9E0E3" stroke-width="0.3" d="M555.52,624.58c18.86-2.44,37.71-5.05,56.57-7.45
		c0.03,3.6-0.46,7.2-0.54,10.81c-17.26,4.99-34.4,10.38-51.66,15.38C558.42,637.08,556.88,630.85,555.52,624.58z"/>
	<path opacity="0.78" fill="#C479A8" stroke="#C479A8" stroke-width="0.3" enable-background="new    " d="M1377.98,635
		c0.02-5.4-0.29-10.88,1.01-16.17c-0.01,8.72,0.12,17.45-0.08,26.17c-0.5701,15.79,0.62,31.58-0.0801,47.37
		c-0.6-3.43-0.88-6.92-0.84-10.39C1377.98,666.32,1378.01,650.66,1377.98,635z"/>
	<path fill="#FFBA37" stroke="#FFBA37" stroke-width="0.3" d="M260.61,621.5c5.52-0.43,10.87,1.21,16.3,1.82
		c42.94,6.04,85.88,12.09,128.83,18.08c2.7,0.53,5.79,0.23,8.2,1.72c-1.35,7.39-4.18,14.45-6.01,21.74
		c-2.06,0.29-4.1,0.63-6.17,0.84c-21.89,0.98-43.74,2.93-65.64,3.94c-0.77-1.96-2.25-3.6-2.82-5.62
		c-0.54-6.31,0.55-12.68-0.37-18.96c-0.12-1.6-1.88-1.86-2.98-2.49c-0.04,0.57-0.11,1.71-0.15,2.28c-3.9-3.37-9.17-4.16-13.92-5.74
		C297.41,633.4,279.17,626.95,260.61,621.5z"/>
	<path fill="#D950BD" stroke="#D950BD" stroke-width="0.3" d="M500.1,628.39c12.96-1.7,25.91-3.49,38.87-5.22
		c0.16,1.18,0.34,2.37,0.51,3.56c-13.8,1.87-27.64,3.53-41.41,5.57C498.76,631,499.46,629.71,500.1,628.39z"/>
	<path fill="#DE67C3" stroke="#DE67C3" stroke-width="0.3" d="M623.62,623.98c0.64-0.05,1.91-0.15,2.55-0.19
		c-0.08,1.54-0.16,3.09-0.24,4.65C623.41,628.24,623.62,625.87,623.62,623.98z"/>
	<path fill="#F9E0E3" stroke="#F9E0E3" stroke-width="0.3" d="M498.07,632.3c13.77-2.04,27.61-3.7,41.41-5.57
		c1.05,7.38,1.15,14.86,1.94,22.27c-9.62,2.7-19.16,5.73-28.75,8.54c-4.06,1.15-8.03,2.71-12.24,3.25c0.9-3.87,2.2-7.71,2.21-11.72
		c0.24-1.58-1.36-1.94-2.55-2.12c-22.46-2.26-44.97-4.09-67.41-6.57c4.65,0.12,9.3-0.33,13.85-1.31
		c15.18-1.97,30.33-4.24,45.56-5.82C494.09,633.01,496.07,632.63,498.07,632.3z"/>
	<path fill="#D950BD" stroke="#D950BD" stroke-width="0.3" d="M559.89,643.32c17.26-5,34.4-10.39,51.66-15.38
		c0.03,1.2,0.11,2.39,0.2,3.61c-17.11,5.18-34.24,10.33-51.38,15.4C560.22,645.73,560.06,644.52,559.89,643.32z"/>
	<path fill="#F9E0E3" stroke="#F9E0E3" stroke-width="0.3" d="M449.67,634.14c12.41-1.71,24.84-3.28,37.25-4.99l-0.55,0.78
		c-12.4,1.51-24.79,3.17-37.16,4.92C449.32,634.68,449.55,634.32,449.67,634.14z"/>
	<path fill="#D950BD" stroke="#D950BD" stroke-width="0.3" d="M449.21,634.85c12.37-1.75,24.76-3.41,37.16-4.92
		c0.25,3.1,3.04,3.98,5.72,3.32c-15.23,1.58-30.38,3.85-45.56,5.82C447.41,637.65,448.3,636.25,449.21,634.85z"/>
	<path fill="#F9E0E3" stroke="#F9E0E3" stroke-width="0.3" d="M415,638.13c5.49,0.19,10.89-0.99,16.33-1.5
		c-3.97,1.53-8.29,1.41-12.43,2.17l0.03,0.65C417.62,638.98,416.32,638.51,415,638.13z"/>
	<path fill="#D950BD" stroke="#D950BD" stroke-width="0.3" d="M431.33,636.63l0.43-0.15c0.3,1.3,0.6,2.6,0.92,3.9
		c22.44,2.48,44.95,4.31,67.41,6.57c1.19,0.18,2.79,0.54,2.55,2.12c-0.01,4.01-1.31,7.85-2.21,11.72c4.21-0.54,8.18-2.1,12.24-3.25
		c9.59-2.81,19.13-5.84,28.75-8.54c0.29,1.07,0.61,2.14,0.95,3.21c-14.38,4.66-28.89,8.93-43.42,13.09
		c-0.61-1.73-1.4-3.38-2.29-4.96c0.8-3.19,1.37-6.4301,1.9-9.67c-26.49-2.29-52.95-5.04-79.43-7.48c-0.05-0.93-0.15-2.8-0.2-3.74
		l-0.03-0.65C423.04,638.04,427.36,638.16,431.33,636.63z"/>
	<path fill="#CDA435" stroke="#CDA435" stroke-width="0.3" d="M329.95,642.57c1.1,0.63,2.86,0.89,2.98,2.49
		c0.92,6.28-0.17,12.65,0.37,18.96c0.57,2.02,2.05,3.66,2.82,5.62c-0.75,0.95-1.47,1.94-2.19,2.92c1.76,0.25,3.52,0.52,5.29,0.74
		c-1.64,0.22-3.27,0.55-4.89,0.88c-40.07,142.97-80.22,285.92-120.31,428.8801c-1.03,2.7899-0.94,6.5499-3.39,8.48
		c-2.89,0.98-2.45-2.9601-1.85-4.64c40.21-143.19,80.35-286.41,120.56-429.6c0.38-1.26,0.34-2.57-0.19-3.76
		c0.82-0.6,1.66-1.2,2.49-1.79c-1.31-5.49-0.71-11.17-1.56-16.71c-0.47-3.38-0.52-6.8-0.28-10.19
		C329.84,644.28,329.91,643.14,329.95,642.57z"/>
	<path fill="#F9E0E3" stroke="#F9E0E3" stroke-width="0.3" d="M419.13,643.19c26.48,2.44,52.94,5.19,79.43,7.48
		c-0.53,3.24-1.1,6.48-1.9,9.67l-0.79,0.12c1.11-3.02,1.82-6.2,1.76-9.43c-26.25-2.11-52.43-5.02-78.66-7.3L419.13,643.19z"/>
	<path fill="#D65BBD" stroke="#D65BBD" stroke-width="0.3" d="M494.66,675.02c0.16-4.86-0.48-9.89,1.21-14.56l0.79-0.12
		c0.89,1.58,1.68,3.23,2.29,4.96c-0.54,6.9-0.67,13.82-0.67,20.74c-0.86,23.97-1.67,47.93-2.24,71.9
		c-1.04,13.65-0.43,27.36-1.55,41.01c-0.06,16.39-1.18,32.74-1.3,49.13c-0.2,7.64-0.96,15.25-0.87,22.9
		c0.12,11.03-1.12,22.02-1.03,33.05c0.03,7.67-0.51,15.33-0.76,22.99c-0.43,8.96-0.08,17.95-0.88,26.9
		c-1.02,35.34-2.11,70.68-3.31,106.03c-0.09,14.03-1.3,28.03-1.19,42.0701c-1.05,13.97-0.6,27.99-1.51,41.97
		c-0.59,9.66-0.09,19.36-0.88,29.03c-0.77,8.96,0.01,17.98-0.94,26.9399c-1.21-0.0299-2.42-0.0499-3.62-0.0499
		c0.14-10.3201,0.56-20.63,0.68-30.9501c0.99-13.64,0.63-27.33,1.4-40.98c0.59-10.3199,0.19-20.6699,1.07-30.96
		c0.58-9.67,0.08-19.38,0.83-29.04c0.85-10.66,0.18-21.38,1.03-32.04c0.8-10.6399,0.16-21.34,1.01-31.9799
		c0.47-5.96,0.42-11.94,0.49-17.91c0.03-9.7,1.14-19.35,0.99-29.05c-0.16-10.68,1.19-21.31,1.01-31.99
		c-0.15-7.7,0.6-15.36,0.87-23.04c0.05-9.97,0.26-19.92,0.96-29.86c-0.01-16.05,1.13-32.08,1.26-48.13c0.27-8.33,1-16.63,0.87-24.97
		c-0.14-10.01,1.18-19.97,1-29.97c-0.11-11.35,1.18-22.66,1.02-34c-0.11-10.0099,1.15-19.96,0.99-29.97
		C493.57,695.04,494.77,685.05,494.66,675.02z"/>
	<path fill="#DFC0AC" stroke="#DFC0AC" stroke-width="0.3" d="M926.44,664.39c4.37-0.87,8.81,0.33,12.52,2.7
		c6.35,3.77,12.98,7.41,17.86,13.1c3.44,4.19,7.49,7.83,10.91,12.06c2.92,3.46,7.78,5.8,8.43,10.72c0.59,2.92,2,5.5601,3.73,7.97
		c2.97,4.09,4.22,9.09,6.9,13.35c4.33-4.07,6.83-9.48,10.07-14.35c2.46-3.98,3.99-8.49,6.84-12.23c3.01-4.04,6.17-7.97,8.81-12.28
		c2.47-4.22,7.33-5.89,10.72-9.18c2.78-2.72,6.4501-4.16,9.53-6.47c2.4299-2.02,5.9299-1.73,8.42-3.67
		c1.6499-0.95,3.5099-2.95,5.5499-1.75c1.77,2.96-1.87,5.14-4.1799,6.1c-8.4301,2.66-15.8601,7.78-22.5701,13.44
		c-4.08,3.0099-6.35,7.68-9.56,11.49c-7.41,9.23-11.09,20.86-18.64,29.98c-3.19,0.01-6.3701-0.08-9.55-0.16
		c-1.89-5.26-4.62-10.14-7.53-14.88c-1.96-3.05-2.36-6.77-4.06-9.92c-6.23-5.46-12.29-11.28-17.02-18.12
		c-2.49-2.88-5.71-4.97-8.83-7.06c-5.75-3.36-11.34-7.7-18.31-7.76C926.45,666.44,926.44,665.41,926.44,664.39z"/>
	<path opacity="0.8" fill="#C681A8" stroke="#C681A8" stroke-width="0.3" enable-background="new    " d="M1379.13,694.73
		c1.5,7.75,0.72,15.68,0.83,23.53C1378.33,710.52,1379.08,702.56,1379.13,694.73z"/>
	<path opacity="0.8" fill="#C784A9" stroke="#C784A9" stroke-width="0.3" enable-background="new    " d="M1380.03,718.81
		c1.7899,9.37,0.75,18.98,0.9099,28.46C1379.29,737.87,1380.2,728.29,1380.03,718.81z"/>
	<path fill="#FFFFFF" stroke="#FFFFFF" stroke-width="0.3" d="M1018.98,725.11c6.36-0.69,12.76-1.11,19.17-0.71
		c-9.74-0.06-19.38,1.53-29.11,1.27c-11.75,0.01-23.5,0.2-35.25-0.28c2.81-0.1,5.62-0.25,8.44-0.18c3.18,0.08,6.36,0.17,9.55,0.16
		C1000.85,725.39,1009.92,725.43,1018.98,725.11z"/>
	<path opacity="0.8" fill="#CB6DB4" stroke="#CB6DB4" stroke-width="0.3" enable-background="new    " d="M1381.13,748.73
		c1.3199,8.01,0.77,16.16,0.89,24.25c-0.16,6.15,0.52,12.39-0.79,18.46C1380.76,777.21,1381,762.96,1381.13,748.73z"/>
	<path opacity="0.79" fill="#C487A4" stroke="#C487A4" stroke-width="0.3" enable-background="new    " d="M1380.17,812.51
		c-0.3101-5.94-0.4601-11.93,0.64-17.8C1380.9399,800.64,1381.66,806.69,1380.17,812.51z"/>
	<path opacity="0.79" fill="#C481A5" stroke="#C481A5" stroke-width="0.3" enable-background="new    " d="M1379.04,825.37
		c-0.15-3.65-0.1801-7.33,0.75-10.88C1380.08,818.13,1380.4,821.88,1379.04,825.37z"/>
	<path opacity="0.78" fill="#C381A5" stroke="#C381A5" stroke-width="0.3" enable-background="new    " d="M1378.16,834.57
		c-0.29-2.99-0.3401-6.03,0.7999-8.85C1379.08,828.69,1379.1,831.71,1378.16,834.57z"/>
	<path opacity="0.78" fill="#C07FA3" stroke="#C07FA3" stroke-width="0.3" enable-background="new    " d="M1377.17,841.09
		c-0.6801-1.7401-0.6001-3.7,0.6699-5.14C1378.47,837.66,1378.49,839.66,1377.17,841.09z"/>
	<path opacity="0.78" fill="#C37BA7" stroke="#C37BA7" stroke-width="0.3" enable-background="new    " d="M1376.1801,848.04
		c-0.6801-1.73-0.7301-3.74,0.6599-5.11C1377.5,844.64,1377.37,846.57,1376.1801,848.04z"/>
	<path opacity="0.8" fill="#C781A9" stroke="#C781A9" stroke-width="0.3" enable-background="new    " d="M1375.2,854.98
		c-0.74-2.01-0.7-4.23,0.62-5.97C1376.51,851,1376.52,853.22,1375.2,854.98z"/>
	<path opacity="0.78" fill="#C37CA7" stroke="#C37CA7" stroke-width="0.3" enable-background="new    " d="M1374.21,862.91
		c-0.64-2.31-0.88-4.8199,0.5701-6.87C1375.45,858.32,1375.59,860.83,1374.21,862.91z"/>
	<path opacity="0.78" fill="#C37DA7" stroke="#C37DA7" stroke-width="0.3" enable-background="new    " d="M1373.22,871.9
		c-0.6599-2.3-0.86-4.79,0.55-6.84C1374.46,867.33,1374.61,869.84,1373.22,871.9z"/>
	<path opacity="0.78" fill="#C281A4" stroke="#C281A4" stroke-width="0.3" enable-background="new    " d="M1372.16,878.1
		c-0.6901-1.75-0.55-3.7,0.6899-5.14C1373.49,874.67,1373.49,876.68,1372.16,878.1z"/>
	<path opacity="0.8" fill="#C783A9" stroke="#C783A9" stroke-width="0.3" enable-background="new    " d="M1370.9301,882.94
		c-0.4-1.44-0.13-2.97,1-3.98C1372.3199,880.26,1372.71,882.48,1370.9301,882.94z"/>
	<path opacity="0.84" fill="#D37BB8" stroke="#D37BB8" stroke-width="0.3" enable-background="new    " d="M1367.95,892.57
		c0.66-3.16,1.67-6.24,2.9601-9.2C1371.09,886.71,1369.9301,889.92,1367.95,892.57z"/>
	<path opacity="0.76" fill="#BF6CA8" stroke="#BF6CA8" stroke-width="0.3" enable-background="new    " d="M1367.34,893.64
		l0.14-0.23c-0.0699,0.15-0.23,0.45-0.2999,0.6L1367.34,893.64z"/>
	<path opacity="0.75" fill="#BC6CA5" stroke="#BC6CA5" stroke-width="0.3" enable-background="new    " d="M1366.3199,895.82
		c0.1001-0.2,0.28-0.59,0.38-0.78C1366.6,895.23,1366.42,895.62,1366.3199,895.82z"/>
	<path opacity="0.85" fill="#D57EBA" stroke="#D57EBA" stroke-width="0.3" enable-background="new    " d="M1363.1801,901.09
		c-0.16-1.9901,1.3199-3.39,2.7899-4.45C1365.95,898.52,1365.42,900.84,1363.1801,901.09z"/>
	<path opacity="0.84" fill="#D578BB" stroke="#D578BB" stroke-width="0.3" enable-background="new    " d="M1361.05,904.16
		c0.0299-1.45,0.72-2.17,2.0599-2.19C1363.11,903.4,1362.42,904.13,1361.05,904.16z"/>
	<path opacity="0.87" fill="#DB7DC0" stroke="#DB7DC0" stroke-width="0.3" enable-background="new    " d="M1354.91,912.56
		c1.65-2.93,3.73-5.56,6-8.01C1360.08,907.93,1357.86,910.74,1354.91,912.56z"/>
	<path fill="#BE44A5" stroke="#BE44A5" stroke-width="0.3" d="M1205.27,910.06c3.97,4.04,8.37,7.72,11.74,12.32
		c-4.14-3.48-7.64-7.62-11.74-11.14C1205.27,910.95,1205.27,910.36,1205.27,910.06z"/>
	<path opacity="0.85" fill="#D67BBB" stroke="#D67BBB" stroke-width="0.3" enable-background="new    " d="M1351.1,917.25
		c0.17-1.65,1.26-2.97,2.89-3.37C1354.16,915.69,1352.92,917.16,1351.1,917.25z"/>
	<path opacity="0.86" fill="#DA7DBE" stroke="#DA7DBE" stroke-width="0.3" enable-background="new    " d="M1345.66,924.03
		c1.09-2.16,2.61-4.05,4.5499-5.5C1349.36,920.87,1347.6801,922.65,1345.66,924.03z"/>
	<path fill="#BE44A5" stroke="#BE44A5" stroke-width="0.3" d="M1218.85,924.68c1.55,1.74,3,3.63,3.86,5.84
		C1221.12,928.78,1219.83,926.8,1218.85,924.68z"/>
	<path opacity="0.87" fill="#DB7CBF" stroke="#DB7CBF" stroke-width="0.3" enable-background="new    " d="M1338.9301,934.65
		c1.2599-3.81,3.4299-7.23,6.2699-10.05C1343.65,928.25,1341.77,931.82,1338.9301,934.65z"/>
	<path opacity="0.85" fill="#D675BD" stroke="#D675BD" stroke-width="0.3" enable-background="new    " d="M1222.9,930.92
		c1.41,0,2.1,0.77,2.0699,2.31C1223.64,933.01,1222.95,932.24,1222.9,930.92z"/>
	<path opacity="0.86" fill="#D780BB" stroke="#D780BB" stroke-width="0.3" enable-background="new    " d="M1225.0699,933.49
		c2.39,3.02,4.2001,6.48,5.0901,10.26C1227.77,940.7,1226.03,937.23,1225.0699,933.49z"/>
	<path opacity="0.75" fill="#BB6DA3" stroke="#BB6DA3" stroke-width="0.3" enable-background="new    " d="M1338.34,935.66
		l0.14-0.23c-0.08,0.14-0.23,0.44-0.2999,0.58L1338.34,935.66z"/>
	<path opacity="0.76" fill="#C16BAA" stroke="#C16BAA" stroke-width="0.3" enable-background="new    " d="M1337.24,937.93
		c0.11-0.22,0.33-0.65,0.4401-0.87l-0.17,0.48L1337.24,937.93z"/>
	<path opacity="0.78" fill="#C46BAD" stroke="#C46BAD" stroke-width="0.3" enable-background="new    " d="M1336.5,939.33
		l0.1899-0.36l-0.1799,0.3701l-0.13,0.24L1336.5,939.33z"/>
	<path fill="#BE44A5" stroke="#BE44A5" stroke-width="0.3" d="M1325.04,962.41c3.0499-7.54,6.7899-14.8,10.86-21.84
		C1332.71,948.04,1329.01,955.33,1325.04,962.41z"/>
	<path opacity="0.76" fill="#BF6CA8" stroke="#BF6CA8" stroke-width="0.3" enable-background="new    " d="M1230.38,944.18
		l0.21,0.35l0.1901,0.47l-0.23-0.43L1230.38,944.18z"/>
	<path opacity="0.74" fill="#B96FA0" stroke="#B96FA0" stroke-width="0.3" enable-background="new    " d="M1231.23,945.93
		l0.21,0.43l0.0901,0.22l-0.11-0.21L1231.23,945.93z"/>
	<path opacity="0.85" fill="#D978BF" stroke="#D978BF" stroke-width="0.3" enable-background="new    " d="M1231.89,947.39
		c1.77,2.53,3.11,5.32,4.14,8.24C1233.52,953.57,1232.35,950.52,1231.89,947.39z"/>
	<path opacity="0.73" fill="#B7749C" stroke="#B7749C" stroke-width="0.3" enable-background="new    " d="M1237.38,957.35
		l0.09,0.12l0.0601,0.1201l-0.0601-0.1201L1237.38,957.35z"/>
	<path opacity="0.87" fill="#DB7AC0" stroke="#DB7AC0" stroke-width="0.3" enable-background="new    " d="M1237.9399,958.51
		c1.79,1.58,3.39,3.39,4.5601,5.5C1240.46,962.64,1238.42,961.07,1237.9399,958.51z"/>
	<path opacity="0.76" fill="#C16BAA" stroke="#C16BAA" stroke-width="0.3" enable-background="new    " d="M1324.58,963.43
		l0.05-0.11l-0.05,0.12l-0.0499,0.11L1324.58,963.43z"/>
	<path opacity="0.84" fill="#D37BB8" stroke="#D37BB8" stroke-width="0.3" enable-background="new    " d="M1317.49,969.02
		c2.3101-1.23,4.5701-2.62,6.59-4.32C1323.6801,968.01,1320.2,968.72,1317.49,969.02z"/>
	<path opacity="0.86" fill="#D87DBC" stroke="#D87DBC" stroke-width="0.3" enable-background="new    " d="M1246.96,968.54
		c2.49,1.39,4.64,3.29,6.4601,5.5C1250.5699,973.13,1248.55,970.95,1246.96,968.54z"/>
	<path opacity="0.78" fill="#C276A7" stroke="#C276A7" stroke-width="0.3" enable-background="new    " d="M1314.85,970.02
		c0.5601-0.23,1.6801-0.69,2.23-0.91C1316.53,969.33,1315.41,969.79,1314.85,970.02z"/>
	<path opacity="0.78" fill="#C279A7" stroke="#C279A7" stroke-width="0.3" enable-background="new    " d="M1311.9,971.04
		c0.53-0.28,1.6-0.83,2.13-1.11C1313.5,970.21,1312.4301,970.76,1311.9,971.04z"/>
	<path opacity="0.76" fill="#BF74A5" stroke="#BF74A5" stroke-width="0.3" enable-background="new    " d="M1308.88,972.03
		c0.54-0.27,1.61-0.8101,2.15-1.08C1310.49,971.22,1309.42,971.76,1308.88,972.03z"/>
	<path opacity="0.77" fill="#C370AA" stroke="#C370AA" stroke-width="0.3" enable-background="new    " d="M1305.83,973
		c0.55-0.26,1.64-0.79,2.1801-1.06C1307.47,972.21,1306.38,972.74,1305.83,973z"/>
	<path opacity="0.79" fill="#C778AC" stroke="#C778AC" stroke-width="0.3" enable-background="new    " d="M1301.92,974.06
		c0.6699-1.26,1.72-1.64,3.14-1.15C1304.29,974.08,1303.25,974.46,1301.92,974.06z"/>
	<path opacity="0.84" fill="#D27BB7" stroke="#D27BB7" stroke-width="0.3" enable-background="new    " d="M1253.63,974.16
		c1.46-0.1,2.37,0.58,2.74,2.03C1254.9301,976.17,1254.02,975.49,1253.63,974.16z"/>
	<path opacity="0.79" fill="#C481A7" stroke="#C481A7" stroke-width="0.3" enable-background="new    " d="M1297.98,975.08
		c0.71-1.21,1.76-1.6,3.13-1.15C1300.39,975.15,1299.34,975.53,1297.98,975.08z"/>
	<path opacity="0.78" fill="#C27EA5" stroke="#C27EA5" stroke-width="0.3" enable-background="new    " d="M1293.9301,976.08
		c0.73-1.23,1.7899-1.6,3.1799-1.13C1296.36,976.13,1295.3,976.5,1293.9301,976.08z"/>
	<path opacity="0.76" fill="#C06CA8" stroke="#C06CA8" stroke-width="0.3" enable-background="new    " d="M1257,976.35
		c0.26,0.08,0.78,0.23,1.04,0.31C1257.78,976.58,1257.26,976.43,1257,976.35z"/>
	<path opacity="0.77" fill="#C074A6" stroke="#C074A6" stroke-width="0.3" enable-background="new    " d="M1289.76,976.94
		c0.83-1.13,1.9299-1.45,3.3099-0.95C1292.22,977.15,1291.11,977.46,1289.76,976.94z"/>
	<path opacity="0.8" fill="#C681A9" stroke="#C681A9" stroke-width="0.3" enable-background="new    " d="M1258.66,976.82
		c1.45-0.37,2.5699,0.06,3.37,1.28C1260.6,978.45,1259.48,978.02,1258.66,976.82z"/>
	<path opacity="0.77" fill="#C07AA3" stroke="#C07AA3" stroke-width="0.3" enable-background="new    " d="M1283.95,978.12
		c0.53-1.85,2.8201-1.4,4.2101-0.97C1286.98,978.15,1285.41,978.39,1283.95,978.12z"/>
	<path opacity="0.8" fill="#C58EA3" stroke="#C58EA3" stroke-width="0.3" enable-background="new    " d="M1262.38,978.14
		c6.74,0.18,13.48-0.08,20.23-0.06c-2.46,0.84-5.0599,1.09-7.63,0.98C1270.77,978.87,1266.42,979.61,1262.38,978.14z"/>
	<path fill="#EAC3D9" stroke="#EAC3D9" stroke-width="0.3" d="M1169.74,1033.04c0.25-5.2201-0.3-10.5701,1.3201-15.6201
		c0.2,9.72-0.6901,19.44,0,29.15C1169.11,1042.3101,1169.73,1037.5699,1169.74,1033.04z"/>
	<path fill="#C64DAD" stroke="#C64DAD" stroke-width="0.3" d="M724.08,1038.29c1.53-0.1801,3.07-0.37,4.61-0.55
		c0.09,12.67,0.84,25.35,0.67,38.01c-1.3,1.55-2.62,3.09-3.82,4.73c-1.05-5.4399-0.75-10.98-0.83-16.47
		C724.63,1055.4301,724.4,1046.85,724.08,1038.29z"/>
	<path fill="#ECE6E1" stroke="#ECE6E1" stroke-width="0.3" d="M1174.17,1069.71c1.5699,12.1001,2.2,24.4701-0.1001,36.52
		c-0.21-5.77,0.89-11.48,0.77-17.24C1174.8101,1082.55,1173.8101,1076.15,1174.17,1069.71z"/>
	<path fill="#E5CCD4" stroke="#E5CCD4" stroke-width="0.3" d="M1172.91,1121.02c-0.13-4.8301-0.7201-9.87,1.12-14.46
		c-0.15,8.59-0.23,17.22,1.11,25.75C1173.1,1128.91,1173.26,1124.8199,1172.91,1121.02z"/>
	<path fill="#C64DAD" stroke="#C64DAD" stroke-width="0.3" d="M682.74,1136.71c4.19-1.99,8.2-4.48,12.73-5.6699
		c-0.91,1.89-1.73,3.84-2.5099,5.8099c-67.12,32.53-134.18,65.1801-201.28,97.76c-2.75,1.15-5.53,3.55-8.67,2.46
		c-49.87-14.83-99.71-29.7899-149.57-44.6399c-1.82-0.66-4.27-1.12-4.82-3.3c0.05-3.76,0.93-7.4401,1.42-11.15
		c2.13-13.74,3.97-27.53,6.29-41.24c0.51-0.64,1.02-1.28,1.51-1.91c1.15-0.61,2.3-1.22,3.46-1.7899
		c-2.47,18.1699-5.52,36.26-7.99,54.4399c49.48,15.14,99.17,29.5801,148.69,44.6c1.6,0.55,3.36,0.66,4.89-0.1899
		C552.15,1200.12,617.46,1168.45,682.74,1136.71z"/>
</g>
</svg>
